M48
;Layer_Color=9474304
;FILE_FORMAT=4:4
METRIC,LZ
;TYPE=PLATED
T1F00S00C0.3000
T3F00S00C1.0000
T4F00S00C2.0000
;TYPE=NON_PLATED
T5F00S00C0.6000
%
T01
X00168Y000075
X0016075Y0002475
X00165258Y00049502
X001435Y0006375
X001795Y000795
X0018006Y00097784
Y00113035
Y001275
Y00141536
X00188642Y001345
X001885Y001205
X0018881Y00104784
X002005Y0009525
X0019725Y00071
X0020775Y000745
X0021775Y000525
X00229Y00032437
X0025325Y0003025
X0025475Y0004775
X0028625Y000625
X00287565Y00093284
X00277533Y0009875
X00268283Y0009475
X00257476Y0010975
X00245476
X00233476
X00221476
Y0012175
X00233476
Y0013375
X00221476
Y0014575
X00233476
X00245476
Y0013375
X00257476
Y0014575
Y0012175
X00245476
X00249Y00172358
X00239Y001755
X00232563Y00167287
X0026325Y00170608
X0027025Y0016325
X0025675Y0017875
X00287Y001925
X0032725Y0016325
X0032675Y00106748
Y00090749
Y00074749
Y0005875
Y00042751
Y00026748
Y00010749
X0027825Y00025
X00198827Y00029058
X00201Y000075
X00166809Y00104784
X0014625Y0012125
X001485Y0018325
X0018656Y00179038
X00186Y0019175
X00202811Y00160787
X0031125Y00101
X0012975Y00078
X00106049Y00081701
X00105806Y00071533
X001095Y000495
X001075Y00027
X00090264Y00025264
X0008575Y000085
X00062814Y00020936
X000345Y0000875
X00007Y0003425
X0004275Y000575
X0004925Y00069
X000835Y0007625
X0008525Y0009525
Y001045
X00088004Y00134507
X001Y0014225
X0011525Y001325
X0012675Y001245
X0012225Y0016675
X00084497Y00163753
X00065253Y00180509
X0005525Y0017975
X00075805Y00192289
X000425Y001505
X000325Y0012975
X0003225Y0010425
X00086Y0004675
T03
X0014825Y000135
X001245
X00115718Y00187
X00091968
T04
X0037525Y0018525
X0001525
X0001525Y0001525
T05
X001545Y00174
Y00192
M30
