G04 Layer_Physical_Order=3*
G04 Layer_Color=16440176*
%FSLAX44Y44*%
%MOMM*%
G71*
G01*
G75*
%ADD49C,2.0000*%
%ADD51O,2.5989X1.1000*%
%ADD52O,2.1000X1.1000*%
%ADD53O,2.0989X1.1000*%
%ADD54C,0.8000*%
%ADD55C,0.2540*%
G36*
X332750Y143500D02*
X265250D01*
Y110750D01*
X332750D01*
Y3250D01*
X156580D01*
X156171Y4453D01*
X156809Y4942D01*
X158732Y7448D01*
X159941Y10367D01*
X160354Y13500D01*
X159941Y16633D01*
X158732Y19552D01*
X156809Y22058D01*
X154302Y23982D01*
X151383Y25191D01*
X148250Y25604D01*
X145117Y25191D01*
X142198Y23982D01*
X139691Y22058D01*
X137768Y19552D01*
X137062Y17848D01*
X135688D01*
X134982Y19552D01*
X133059Y22058D01*
X130552Y23982D01*
X127633Y25191D01*
X124500Y25604D01*
X121367Y25191D01*
X118448Y23982D01*
X115941Y22058D01*
X114018Y19552D01*
X112809Y16633D01*
X112396Y13500D01*
X112809Y10367D01*
X114018Y7448D01*
X115941Y4942D01*
X116579Y4453D01*
X116170Y3250D01*
X90804D01*
X90307Y4520D01*
X91402Y6159D01*
X91868Y8500D01*
X91402Y10841D01*
X90076Y12826D01*
X88091Y14152D01*
X85750Y14618D01*
X83409Y14152D01*
X81424Y12826D01*
X80098Y10841D01*
X79633Y8500D01*
X80098Y6159D01*
X81193Y4520D01*
X80696Y3250D01*
X39182D01*
X39176Y3271D01*
X38890Y4520D01*
X40152Y6409D01*
X40618Y8750D01*
X40152Y11091D01*
X38826Y13076D01*
X36841Y14402D01*
X34500Y14868D01*
X32159Y14402D01*
X30174Y13076D01*
X28848Y11091D01*
X28382Y8750D01*
X28848Y6409D01*
X30110Y4520D01*
X29825Y3271D01*
X29818Y3250D01*
X20956D01*
X20703Y4520D01*
X21302Y4768D01*
X23808Y6691D01*
X25732Y9198D01*
X26941Y12117D01*
X27353Y15250D01*
X26941Y18383D01*
X25732Y21302D01*
X23808Y23809D01*
X21302Y25732D01*
X18383Y26941D01*
X15250Y27353D01*
X12117Y26941D01*
X9198Y25732D01*
X6691Y23809D01*
X4768Y21302D01*
X4520Y20703D01*
X3250Y20956D01*
Y28193D01*
X4370Y28791D01*
X4659Y28598D01*
X7000Y28133D01*
X9341Y28598D01*
X11326Y29924D01*
X12652Y31909D01*
X13118Y34250D01*
X12652Y36591D01*
X11326Y38576D01*
X9341Y39902D01*
X7000Y40367D01*
X4659Y39902D01*
X4370Y39709D01*
X3250Y40307D01*
Y48923D01*
X4520Y49469D01*
X6198Y48774D01*
X8286Y48499D01*
X14531D01*
Y56568D01*
Y64637D01*
X8286D01*
X6198Y64362D01*
X4520Y63667D01*
X3250Y64213D01*
Y135313D01*
X4520Y135859D01*
X6198Y135164D01*
X8286Y134889D01*
X14531D01*
Y142958D01*
Y151028D01*
X8286D01*
X6198Y150753D01*
X4520Y150057D01*
X3250Y150604D01*
Y179544D01*
X4520Y179797D01*
X4768Y179198D01*
X6691Y176691D01*
X9198Y174768D01*
X12117Y173559D01*
X15250Y173146D01*
X18383Y173559D01*
X21302Y174768D01*
X23809Y176691D01*
X25732Y179198D01*
X26941Y182117D01*
X27353Y185250D01*
X26941Y188383D01*
X25732Y191302D01*
X23809Y193808D01*
X21302Y195732D01*
X20703Y195980D01*
X20956Y197250D01*
X70376D01*
X71055Y195980D01*
X70153Y194630D01*
X69687Y192289D01*
X70153Y189947D01*
X71479Y187963D01*
X73464Y186637D01*
X75805Y186171D01*
X78146Y186637D01*
X80131Y187963D01*
X81457Y189947D01*
X81923Y192289D01*
X81457Y194630D01*
X80555Y195980D01*
X81233Y197250D01*
X107388D01*
X107797Y196047D01*
X107160Y195558D01*
X105236Y193052D01*
X104027Y190133D01*
X103615Y187000D01*
X104027Y183867D01*
X105236Y180948D01*
X107160Y178442D01*
X109666Y176518D01*
X112585Y175309D01*
X115718Y174896D01*
X118851Y175309D01*
X121770Y176518D01*
X124277Y178442D01*
X126200Y180948D01*
X127409Y183867D01*
X127822Y187000D01*
X127409Y190133D01*
X126200Y193052D01*
X124277Y195558D01*
X123639Y196047D01*
X124048Y197250D01*
X151072D01*
X151457Y195980D01*
X150895Y195605D01*
X149790Y193951D01*
X149402Y192000D01*
X149716Y190420D01*
X148886Y189291D01*
X148500Y189368D01*
X146159Y188902D01*
X144174Y187576D01*
X142848Y185591D01*
X142382Y183250D01*
X142848Y180909D01*
X144174Y178924D01*
X146159Y177598D01*
X148500Y177132D01*
X149137Y177259D01*
X149901Y176116D01*
X149790Y175951D01*
X149402Y174000D01*
X149790Y172049D01*
X150895Y170395D01*
X152549Y169290D01*
X154500Y168902D01*
X156451Y169290D01*
X158105Y170395D01*
X159210Y172049D01*
X159598Y174000D01*
X159210Y175951D01*
X158105Y177605D01*
X156451Y178710D01*
X154500Y179098D01*
X154465Y179091D01*
X153701Y180234D01*
X154152Y180909D01*
X154618Y183250D01*
X154152Y185591D01*
X154010Y185803D01*
X154768Y186955D01*
X156451Y187290D01*
X158105Y188395D01*
X159210Y190049D01*
X159598Y192000D01*
X159210Y193951D01*
X158105Y195605D01*
X157543Y195980D01*
X157928Y197250D01*
X332750D01*
Y143500D01*
D02*
G37*
%LPC*%
G36*
X68140Y64637D02*
X64396D01*
X62307Y64362D01*
X60361Y63556D01*
X58690Y62274D01*
X57408Y60603D01*
X56602Y58657D01*
X56491Y57818D01*
X68140D01*
Y64637D01*
D02*
G37*
G36*
X74384D02*
X70640D01*
Y57818D01*
X82289D01*
X82179Y58657D01*
X81372Y60603D01*
X80090Y62274D01*
X78419Y63556D01*
X76473Y64362D01*
X74384Y64637D01*
D02*
G37*
G36*
X42750Y63618D02*
X40409Y63152D01*
X38424Y61826D01*
X37098Y59841D01*
X36632Y57500D01*
X37098Y55159D01*
X38424Y53175D01*
X40409Y51849D01*
X42750Y51383D01*
X45091Y51849D01*
X47075Y53175D01*
X48401Y55159D01*
X48867Y57500D01*
X48401Y59841D01*
X47075Y61826D01*
X45091Y63152D01*
X42750Y63618D01*
D02*
G37*
G36*
X286250Y68618D02*
X283909Y68152D01*
X281924Y66826D01*
X280598Y64841D01*
X280132Y62500D01*
X280598Y60159D01*
X281924Y58174D01*
X283909Y56848D01*
X286250Y56382D01*
X288591Y56848D01*
X290576Y58174D01*
X291902Y60159D01*
X292367Y62500D01*
X291902Y64841D01*
X290576Y66826D01*
X288591Y68152D01*
X286250Y68618D01*
D02*
G37*
G36*
X207750Y80618D02*
X205409Y80152D01*
X203424Y78826D01*
X202098Y76841D01*
X202039Y76544D01*
X200628Y75959D01*
X199591Y76652D01*
X197250Y77118D01*
X194909Y76652D01*
X192924Y75326D01*
X191598Y73341D01*
X191133Y71000D01*
X191598Y68659D01*
X192924Y66674D01*
X194909Y65348D01*
X197250Y64882D01*
X199591Y65348D01*
X201576Y66674D01*
X202902Y68659D01*
X202961Y68956D01*
X204372Y69541D01*
X205409Y68848D01*
X207750Y68383D01*
X210091Y68848D01*
X212076Y70174D01*
X213402Y72159D01*
X213867Y74500D01*
X213402Y76841D01*
X212076Y78826D01*
X210091Y80152D01*
X207750Y80618D01*
D02*
G37*
G36*
X200500Y101368D02*
X198159Y100902D01*
X196174Y99576D01*
X194848Y97591D01*
X194382Y95250D01*
X194848Y92909D01*
X196174Y90924D01*
X198159Y89598D01*
X200500Y89132D01*
X202841Y89598D01*
X204826Y90924D01*
X206152Y92909D01*
X206618Y95250D01*
X206152Y97591D01*
X204826Y99576D01*
X202841Y100902D01*
X200500Y101368D01*
D02*
G37*
G36*
X23275Y64637D02*
X17031D01*
Y57818D01*
X31180D01*
X31069Y58657D01*
X30263Y60603D01*
X28981Y62274D01*
X27310Y63556D01*
X25364Y64362D01*
X23275Y64637D01*
D02*
G37*
G36*
X106049Y87819D02*
X103708Y87353D01*
X101723Y86027D01*
X100397Y84043D01*
X99931Y81701D01*
X100397Y79360D01*
X101723Y77376D01*
X101787Y77333D01*
Y76063D01*
X101481Y75858D01*
X100154Y73874D01*
X99689Y71533D01*
X100154Y69192D01*
X101481Y67207D01*
X103465Y65881D01*
X105806Y65415D01*
X108147Y65881D01*
X110132Y67207D01*
X111458Y69192D01*
X111924Y71533D01*
X111458Y73874D01*
X110132Y75858D01*
X110068Y75901D01*
Y77171D01*
X110374Y77376D01*
X111700Y79360D01*
X112166Y81701D01*
X111700Y84043D01*
X110374Y86027D01*
X108390Y87353D01*
X106049Y87819D01*
D02*
G37*
G36*
X68140Y55318D02*
X56491D01*
X56602Y54480D01*
X57408Y52533D01*
X58690Y50862D01*
X60361Y49580D01*
X62307Y48774D01*
X64396Y48499D01*
X68140D01*
Y55318D01*
D02*
G37*
G36*
X90264Y31381D02*
X87922Y30916D01*
X85938Y29589D01*
X84612Y27605D01*
X84146Y25264D01*
X84612Y22922D01*
X85938Y20938D01*
X87922Y19612D01*
X90264Y19146D01*
X92605Y19612D01*
X94589Y20938D01*
X95915Y22922D01*
X96381Y25264D01*
X95915Y27605D01*
X94589Y29589D01*
X92605Y30916D01*
X90264Y31381D01*
D02*
G37*
G36*
X229000Y38554D02*
X226659Y38089D01*
X224674Y36762D01*
X223348Y34778D01*
X222882Y32437D01*
X223348Y30096D01*
X224674Y28111D01*
X226659Y26785D01*
X229000Y26319D01*
X231341Y26785D01*
X233326Y28111D01*
X234652Y30096D01*
X235117Y32437D01*
X234652Y34778D01*
X233326Y36762D01*
X231341Y38089D01*
X229000Y38554D01*
D02*
G37*
G36*
X62814Y27054D02*
X60473Y26588D01*
X58488Y25262D01*
X57162Y23277D01*
X56696Y20936D01*
X57162Y18595D01*
X58488Y16610D01*
X60473Y15284D01*
X62814Y14819D01*
X65155Y15284D01*
X67140Y16610D01*
X68466Y18595D01*
X68931Y20936D01*
X68466Y23277D01*
X67140Y25262D01*
X65155Y26588D01*
X62814Y27054D01*
D02*
G37*
G36*
X278250Y31117D02*
X275909Y30652D01*
X273924Y29326D01*
X272598Y27341D01*
X272132Y25000D01*
X272598Y22659D01*
X273924Y20674D01*
X275909Y19348D01*
X278250Y18882D01*
X280591Y19348D01*
X282576Y20674D01*
X283902Y22659D01*
X284368Y25000D01*
X283902Y27341D01*
X282576Y29326D01*
X280591Y30652D01*
X278250Y31117D01*
D02*
G37*
G36*
X165258Y55620D02*
X162917Y55154D01*
X160932Y53828D01*
X159606Y51844D01*
X159141Y49502D01*
X159606Y47161D01*
X160932Y45177D01*
X162917Y43850D01*
X165258Y43385D01*
X167599Y43850D01*
X169584Y45177D01*
X170910Y47161D01*
X171376Y49502D01*
X170910Y51844D01*
X169584Y53828D01*
X167599Y55154D01*
X165258Y55620D01*
D02*
G37*
G36*
X31180Y55318D02*
X17031D01*
Y48499D01*
X23275D01*
X25364Y48774D01*
X27310Y49580D01*
X28981Y50862D01*
X30263Y52533D01*
X31069Y54480D01*
X31180Y55318D01*
D02*
G37*
G36*
X82289Y55318D02*
X70640D01*
Y48499D01*
X74384D01*
X76473Y48774D01*
X78419Y49580D01*
X79914Y50727D01*
X80854Y49847D01*
X80348Y49091D01*
X79882Y46750D01*
X80348Y44409D01*
X81674Y42424D01*
X83659Y41098D01*
X86000Y40632D01*
X88341Y41098D01*
X90326Y42424D01*
X91652Y44409D01*
X92118Y46750D01*
X91652Y49091D01*
X90326Y51076D01*
X88341Y52402D01*
X86000Y52867D01*
X83659Y52402D01*
X82044Y51323D01*
X81164Y52262D01*
X81372Y52533D01*
X82179Y54480D01*
X82289Y55318D01*
D02*
G37*
G36*
X109500Y55617D02*
X107159Y55152D01*
X105174Y53826D01*
X103848Y51841D01*
X103383Y49500D01*
X103848Y47159D01*
X105174Y45174D01*
X107159Y43848D01*
X109500Y43382D01*
X111841Y43848D01*
X113826Y45174D01*
X115152Y47159D01*
X115618Y49500D01*
X115152Y51841D01*
X113826Y53826D01*
X111841Y55152D01*
X109500Y55617D01*
D02*
G37*
G36*
X42500Y156617D02*
X40159Y156152D01*
X38174Y154826D01*
X36848Y152841D01*
X36383Y150500D01*
X36848Y148159D01*
X38174Y146174D01*
X40159Y144848D01*
X42500Y144382D01*
X44841Y144848D01*
X46826Y146174D01*
X48152Y148159D01*
X48618Y150500D01*
X48152Y152841D01*
X46826Y154826D01*
X44841Y156152D01*
X42500Y156617D01*
D02*
G37*
G36*
X84497Y169870D02*
X82156Y169405D01*
X80172Y168078D01*
X78846Y166094D01*
X78380Y163753D01*
X78846Y161411D01*
X80172Y159427D01*
X82156Y158101D01*
X84497Y157635D01*
X86839Y158101D01*
X88823Y159427D01*
X90149Y161411D01*
X90615Y163753D01*
X90149Y166094D01*
X88823Y168078D01*
X86839Y169405D01*
X84497Y169870D01*
D02*
G37*
G36*
X74387Y151028D02*
X70637D01*
Y144208D01*
X82292D01*
X82182Y145047D01*
X81376Y146993D01*
X80093Y148664D01*
X78422Y149946D01*
X76476Y150753D01*
X74387Y151028D01*
D02*
G37*
G36*
X23275D02*
X17031D01*
Y144208D01*
X31180D01*
X31069Y145047D01*
X30263Y146993D01*
X28981Y148664D01*
X27310Y149946D01*
X25364Y150753D01*
X23275Y151028D01*
D02*
G37*
G36*
X256750Y184867D02*
X254409Y184402D01*
X252424Y183076D01*
X251098Y181091D01*
X250765Y179419D01*
X249511Y178374D01*
X249000Y178475D01*
X246659Y178010D01*
X245786Y177426D01*
X244488Y178086D01*
X243326Y179826D01*
X241341Y181152D01*
X239000Y181618D01*
X236659Y181152D01*
X234674Y179826D01*
X233348Y177841D01*
X232882Y175500D01*
X233082Y174498D01*
X232222Y173337D01*
X230222Y172939D01*
X228237Y171613D01*
X226911Y169629D01*
X226445Y167287D01*
X226911Y164946D01*
X228237Y162962D01*
X230222Y161635D01*
X232563Y161170D01*
X234904Y161635D01*
X236888Y162962D01*
X238214Y164946D01*
X238680Y167287D01*
X238481Y168289D01*
X239341Y169450D01*
X241341Y169848D01*
X242214Y170431D01*
X243512Y169771D01*
X244674Y168032D01*
X246659Y166706D01*
X249000Y166240D01*
X251341Y166706D01*
X253326Y168032D01*
X254652Y170017D01*
X255117Y172358D01*
X255139Y172379D01*
X256414Y172306D01*
X257262Y171262D01*
X257132Y170608D01*
X257598Y168267D01*
X258924Y166282D01*
X260909Y164956D01*
X263091Y164522D01*
X263512Y164294D01*
X264203Y163603D01*
X264132Y163250D01*
X264598Y160909D01*
X265924Y158924D01*
X267909Y157598D01*
X270250Y157133D01*
X272591Y157598D01*
X274576Y158924D01*
X275902Y160909D01*
X276367Y163250D01*
X275902Y165591D01*
X274576Y167576D01*
X272591Y168902D01*
X270409Y169336D01*
X269988Y169564D01*
X269297Y170255D01*
X269368Y170608D01*
X268902Y172949D01*
X267576Y174934D01*
X265591Y176260D01*
X263740Y176628D01*
X262680Y177808D01*
X262868Y178750D01*
X262402Y181091D01*
X261076Y183076D01*
X259091Y184402D01*
X256750Y184867D01*
D02*
G37*
G36*
X65253Y186626D02*
X62912Y186161D01*
X60927Y184835D01*
X60704Y184500D01*
X59265Y184283D01*
X57591Y185402D01*
X55250Y185868D01*
X52909Y185402D01*
X50924Y184076D01*
X49598Y182091D01*
X49132Y179750D01*
X49598Y177409D01*
X50924Y175424D01*
X52909Y174098D01*
X55250Y173633D01*
X57591Y174098D01*
X59576Y175424D01*
X59799Y175759D01*
X61238Y175976D01*
X62912Y174857D01*
X65253Y174391D01*
X67594Y174857D01*
X69579Y176183D01*
X70905Y178168D01*
X71371Y180509D01*
X70905Y182850D01*
X69579Y184835D01*
X67594Y186161D01*
X65253Y186626D01*
D02*
G37*
G36*
X122250Y172868D02*
X119909Y172402D01*
X117924Y171076D01*
X116598Y169091D01*
X116132Y166750D01*
X116598Y164409D01*
X117924Y162424D01*
X119909Y161098D01*
X122250Y160632D01*
X124591Y161098D01*
X126576Y162424D01*
X127902Y164409D01*
X128368Y166750D01*
X127902Y169091D01*
X126576Y171076D01*
X124591Y172402D01*
X122250Y172868D01*
D02*
G37*
G36*
X186560Y185156D02*
X184219Y184690D01*
X182235Y183364D01*
X180909Y181379D01*
X180443Y179038D01*
X180909Y176697D01*
X182235Y174712D01*
X184219Y173386D01*
X186560Y172920D01*
X188901Y173386D01*
X190886Y174712D01*
X192212Y176697D01*
X192678Y179038D01*
X192212Y181379D01*
X190886Y183364D01*
X188901Y184690D01*
X186560Y185156D01*
D02*
G37*
G36*
X68137Y151028D02*
X64387D01*
X62299Y150753D01*
X60353Y149946D01*
X58682Y148664D01*
X57400Y146993D01*
X56593Y145047D01*
X56483Y144208D01*
X68137D01*
Y151028D01*
D02*
G37*
G36*
X277533Y104868D02*
X275191Y104402D01*
X273207Y103076D01*
X271881Y101091D01*
X271835Y100863D01*
X270946Y100494D01*
X270455Y100435D01*
X268283Y100868D01*
X265942Y100402D01*
X263957Y99076D01*
X262631Y97091D01*
X262165Y94750D01*
X262631Y92409D01*
X263957Y90424D01*
X265942Y89098D01*
X268283Y88632D01*
X270624Y89098D01*
X272608Y90424D01*
X273934Y92409D01*
X273980Y92638D01*
X274869Y93006D01*
X275360Y93065D01*
X277533Y92633D01*
X279874Y93098D01*
X280267Y93361D01*
X281564Y92700D01*
X281913Y90943D01*
X283239Y88958D01*
X285224Y87632D01*
X287565Y87166D01*
X289906Y87632D01*
X291891Y88958D01*
X293217Y90943D01*
X293683Y93284D01*
X293217Y95625D01*
X291891Y97610D01*
X289906Y98936D01*
X287565Y99401D01*
X285224Y98936D01*
X284831Y98673D01*
X283534Y99334D01*
X283185Y101091D01*
X281858Y103076D01*
X279874Y104402D01*
X277533Y104868D01*
D02*
G37*
G36*
X88004Y140624D02*
X85663Y140158D01*
X83679Y138832D01*
X82352Y136848D01*
X81887Y134507D01*
X82352Y132165D01*
X83679Y130181D01*
X85663Y128855D01*
X88004Y128389D01*
X90345Y128855D01*
X92330Y130181D01*
X93656Y132165D01*
X94122Y134507D01*
X93656Y136848D01*
X92330Y138832D01*
X90345Y140158D01*
X88004Y140624D01*
D02*
G37*
G36*
X32250Y110367D02*
X29909Y109902D01*
X27924Y108576D01*
X26598Y106591D01*
X26133Y104250D01*
X26598Y101909D01*
X27924Y99924D01*
X29909Y98598D01*
X32250Y98132D01*
X34591Y98598D01*
X36576Y99924D01*
X37902Y101909D01*
X38368Y104250D01*
X37902Y106591D01*
X36576Y108576D01*
X34591Y109902D01*
X32250Y110367D01*
D02*
G37*
G36*
X166809Y110902D02*
X164468Y110436D01*
X162484Y109110D01*
X161157Y107126D01*
X160692Y104784D01*
X161157Y102443D01*
X162484Y100459D01*
X164468Y99132D01*
X166809Y98667D01*
X169151Y99132D01*
X171135Y100459D01*
X172461Y102443D01*
X172927Y104784D01*
X172461Y107126D01*
X171135Y109110D01*
X169151Y110436D01*
X166809Y110902D01*
D02*
G37*
G36*
X68137Y141708D02*
X56483D01*
X56593Y140870D01*
X57400Y138924D01*
X58682Y137253D01*
X60353Y135971D01*
X62299Y135164D01*
X64387Y134889D01*
X68137D01*
Y141708D01*
D02*
G37*
G36*
X82292D02*
X70637D01*
Y134889D01*
X74387D01*
X76476Y135164D01*
X78422Y135971D01*
X80093Y137253D01*
X81376Y138924D01*
X82182Y140870D01*
X82292Y141708D01*
D02*
G37*
G36*
X180060Y147654D02*
X177719Y147188D01*
X175734Y145862D01*
X174408Y143877D01*
X173943Y141536D01*
X174408Y139195D01*
X175734Y137210D01*
X177719Y135884D01*
X180060Y135419D01*
X180578Y135522D01*
X181770Y134516D01*
X180579Y133514D01*
X180060Y133617D01*
X177719Y133152D01*
X175734Y131826D01*
X174408Y129841D01*
X173943Y127500D01*
X174408Y125159D01*
X175734Y123174D01*
X177719Y121848D01*
X180060Y121383D01*
X180890Y121547D01*
X181948Y120645D01*
X181966Y119923D01*
X180903Y118985D01*
X180060Y119152D01*
X177719Y118687D01*
X175734Y117360D01*
X174408Y115376D01*
X173943Y113035D01*
X174408Y110694D01*
X175734Y108709D01*
X177719Y107383D01*
X180060Y106917D01*
X181895Y107282D01*
X182910Y106460D01*
X182995Y106305D01*
X182693Y104784D01*
X182723Y104632D01*
X181636Y103588D01*
X180060Y103902D01*
X177719Y103436D01*
X175734Y102110D01*
X174408Y100125D01*
X173943Y97784D01*
X174408Y95443D01*
X175734Y93458D01*
X177719Y92132D01*
X180060Y91666D01*
X182401Y92132D01*
X184386Y93458D01*
X185712Y95443D01*
X186178Y97784D01*
X186147Y97937D01*
X187234Y98980D01*
X188810Y98667D01*
X191152Y99132D01*
X193136Y100459D01*
X194462Y102443D01*
X194928Y104784D01*
X194462Y107126D01*
X193136Y109110D01*
X191152Y110436D01*
X188810Y110902D01*
X186976Y110537D01*
X185961Y111360D01*
X185875Y111514D01*
X186178Y113035D01*
X186071Y113571D01*
X187151Y114651D01*
X188500Y114382D01*
X190841Y114848D01*
X192826Y116174D01*
X194152Y118159D01*
X194618Y120500D01*
X194152Y122841D01*
X192826Y124826D01*
X190841Y126152D01*
X188500Y126618D01*
X188203Y126558D01*
X187064Y127513D01*
X188204Y128470D01*
X188642Y128383D01*
X190984Y128848D01*
X192968Y130174D01*
X194294Y132159D01*
X194760Y134500D01*
X194294Y136841D01*
X192968Y138826D01*
X190984Y140152D01*
X188642Y140618D01*
X187234Y140337D01*
X186154Y141418D01*
X186178Y141536D01*
X185712Y143877D01*
X184386Y145862D01*
X182401Y147188D01*
X180060Y147654D01*
D02*
G37*
G36*
X31180Y141709D02*
X17031D01*
Y134889D01*
X23275D01*
X25364Y135164D01*
X27310Y135971D01*
X28981Y137253D01*
X30263Y138924D01*
X31069Y140870D01*
X31180Y141709D01*
D02*
G37*
%LPD*%
D49*
X91968Y187000D02*
D03*
D51*
X15781Y56568D02*
D03*
Y142958D02*
D03*
D52*
X69387D02*
D03*
D53*
X69390Y56568D02*
D03*
D54*
X221476Y133750D02*
D03*
X233476Y145750D02*
D03*
X221476Y109750D02*
D03*
Y145750D02*
D03*
X245476Y109750D02*
D03*
X257476D02*
D03*
Y145750D02*
D03*
X245476D02*
D03*
X233476Y109750D02*
D03*
X245476Y133750D02*
D03*
X257476D02*
D03*
X233476D02*
D03*
X221476Y121750D02*
D03*
X245476D02*
D03*
X257476D02*
D03*
X233476D02*
D03*
X326750Y58750D02*
D03*
Y74749D02*
D03*
X311250Y101000D02*
D03*
X100000Y142250D02*
D03*
X129750Y78000D02*
D03*
X146250Y121250D02*
D03*
X115250Y132500D02*
D03*
X83500Y76250D02*
D03*
X85250Y95250D02*
D03*
Y104500D02*
D03*
X126750Y124500D02*
D03*
X186000Y191750D02*
D03*
X326750Y106748D02*
D03*
Y90749D02*
D03*
Y42751D02*
D03*
Y26748D02*
D03*
Y10749D02*
D03*
X327250Y163250D02*
D03*
X287000Y192500D02*
D03*
X168000Y7500D02*
D03*
X198827Y29058D02*
D03*
X32250Y104250D02*
D03*
X143500Y63750D02*
D03*
X202811Y160787D02*
D03*
X201000Y7500D02*
D03*
X217750Y52500D02*
D03*
X49250Y69000D02*
D03*
X253250Y30250D02*
D03*
X160750Y24750D02*
D03*
X179500Y79500D02*
D03*
X107500Y27000D02*
D03*
X254750Y47750D02*
D03*
X32500Y129750D02*
D03*
D55*
X32000Y105000D02*
X32250Y104750D01*
Y104250D02*
Y104750D01*
M02*
