G04 Layer_Physical_Order=2*
G04 Layer_Color=36540*
%FSLAX44Y44*%
%MOMM*%
G71*
G01*
G75*
%ADD49C,2.0000*%
%ADD54C,0.8000*%
%ADD55C,0.2540*%
G36*
X129250Y168824D02*
X127980Y168699D01*
X127902Y169091D01*
X126576Y171076D01*
X124591Y172402D01*
X122250Y172868D01*
X119909Y172402D01*
X117924Y171076D01*
X116598Y169091D01*
X116132Y166750D01*
X116598Y164409D01*
X117924Y162424D01*
X119909Y161098D01*
X122250Y160632D01*
X124591Y161098D01*
X126576Y162424D01*
X127902Y164409D01*
X127980Y164802D01*
X129250Y164676D01*
X129250Y131415D01*
X127980Y130373D01*
X126750Y130618D01*
X124409Y130152D01*
X122424Y128826D01*
X121098Y126841D01*
X120632Y124500D01*
X121098Y122159D01*
X122424Y120174D01*
X124409Y118848D01*
X126750Y118383D01*
X127980Y118627D01*
X129250Y117585D01*
Y115250D01*
X145659D01*
X146250Y115133D01*
X146841Y115250D01*
X171250Y115250D01*
Y98250D01*
X90462D01*
X90005Y98933D01*
X89679Y99875D01*
X90005Y100816D01*
X90902Y102159D01*
X91368Y104500D01*
X90902Y106841D01*
X89576Y108826D01*
X87591Y110152D01*
X85250Y110618D01*
X82909Y110152D01*
X80924Y108826D01*
X79598Y106841D01*
X79282Y105250D01*
X38250D01*
Y127902D01*
X38618Y129750D01*
X38250Y131598D01*
Y144776D01*
X39370Y145375D01*
X40159Y144848D01*
X42500Y144382D01*
X44841Y144848D01*
X46826Y146174D01*
X48152Y148159D01*
X48568Y150250D01*
X59484D01*
X59915Y148980D01*
X59038Y148308D01*
X57836Y146741D01*
X57080Y144916D01*
X56823Y142958D01*
X57080Y141001D01*
X57836Y139176D01*
X59038Y137610D01*
X60605Y136407D01*
X62430Y135652D01*
X64387Y135394D01*
X74387D01*
X76345Y135652D01*
X78170Y136407D01*
X79737Y137610D01*
X80939Y139176D01*
X81694Y141001D01*
X81952Y142958D01*
X81694Y144916D01*
X80939Y146741D01*
X79737Y148308D01*
X78860Y148980D01*
X79291Y150250D01*
X109250D01*
X109250Y197250D01*
X129250D01*
Y168824D01*
D02*
G37*
G36*
X317750Y143500D02*
X265250D01*
X265250Y110750D01*
X317750D01*
Y104358D01*
X316480Y103973D01*
X315576Y105326D01*
X313591Y106652D01*
X311250Y107118D01*
X308909Y106652D01*
X306924Y105326D01*
X305598Y103341D01*
X305133Y101000D01*
X305598Y98659D01*
X306924Y96674D01*
X308909Y95348D01*
X311250Y94882D01*
X313591Y95348D01*
X315576Y96674D01*
X316480Y98027D01*
X317750Y97642D01*
Y5250D01*
X315750Y3250D01*
X206723D01*
X206125Y4370D01*
X206652Y5159D01*
X207118Y7500D01*
X206652Y9841D01*
X205326Y11826D01*
X203341Y13152D01*
X201000Y13618D01*
X198659Y13152D01*
X196674Y11826D01*
X195348Y9841D01*
X194883Y7500D01*
X195348Y5159D01*
X195875Y4370D01*
X195277Y3250D01*
X173723D01*
X173125Y4370D01*
X173652Y5159D01*
X174118Y7500D01*
X173652Y9841D01*
X172326Y11826D01*
X170341Y13152D01*
X168000Y13618D01*
X165659Y13152D01*
X163674Y11826D01*
X162348Y9841D01*
X161882Y7500D01*
X162348Y5159D01*
X162875Y4370D01*
X162277Y3250D01*
X132830D01*
X132421Y4453D01*
X133059Y4942D01*
X134982Y7448D01*
X136191Y10367D01*
X136604Y13500D01*
X136191Y16633D01*
X134982Y19552D01*
X133059Y22058D01*
X130552Y23982D01*
X127633Y25191D01*
X124500Y25604D01*
X121367Y25191D01*
X118448Y23982D01*
X115941Y22058D01*
X114018Y19552D01*
X112809Y16633D01*
X112396Y13500D01*
X112809Y10367D01*
X114018Y7448D01*
X115941Y4942D01*
X116579Y4453D01*
X116171Y3250D01*
X90804D01*
X90307Y4520D01*
X91402Y6159D01*
X91868Y8500D01*
X91402Y10841D01*
X90076Y12826D01*
X88091Y14152D01*
X85750Y14618D01*
X83409Y14152D01*
X81424Y12826D01*
X80098Y10841D01*
X79633Y8500D01*
X80098Y6159D01*
X81193Y4520D01*
X80696Y3250D01*
X20956D01*
X20703Y4520D01*
X21302Y4768D01*
X23808Y6691D01*
X25732Y9198D01*
X26941Y12117D01*
X27353Y15250D01*
X26941Y18383D01*
X25732Y21302D01*
X23808Y23809D01*
X21302Y25732D01*
X18383Y26941D01*
X15250Y27353D01*
X12117Y26941D01*
X9198Y25732D01*
X6691Y23809D01*
X4768Y21302D01*
X4520Y20703D01*
X3250Y20956D01*
Y28193D01*
X4370Y28791D01*
X4659Y28598D01*
X7000Y28133D01*
X9341Y28598D01*
X11326Y29924D01*
X12652Y31909D01*
X13118Y34250D01*
X12652Y36591D01*
X11326Y38576D01*
X9341Y39902D01*
X7000Y40367D01*
X4659Y39902D01*
X4370Y39709D01*
X3250Y40307D01*
Y49543D01*
X4389Y50105D01*
X4504Y50017D01*
X6329Y49261D01*
X8286Y49003D01*
X23275D01*
X25233Y49261D01*
X27058Y50017D01*
X28624Y51219D01*
X29827Y52786D01*
X30582Y54610D01*
X30840Y56568D01*
X30582Y58526D01*
X29827Y60350D01*
X28624Y61917D01*
X27058Y63119D01*
X25233Y63875D01*
X23275Y64133D01*
X8286D01*
X6329Y63875D01*
X4504Y63119D01*
X4389Y63031D01*
X3250Y63593D01*
X3250Y135934D01*
X4389Y136496D01*
X4504Y136407D01*
X6329Y135652D01*
X8286Y135394D01*
X23275D01*
X25233Y135652D01*
X27058Y136407D01*
X28624Y137610D01*
X29827Y139176D01*
X30582Y141001D01*
X30840Y142958D01*
X30582Y144916D01*
X29827Y146741D01*
X28624Y148308D01*
X27058Y149510D01*
X25233Y150266D01*
X23275Y150523D01*
X8286D01*
X6329Y150266D01*
X4504Y149510D01*
X4389Y149422D01*
X3250Y149983D01*
Y179544D01*
X4520Y179797D01*
X4768Y179198D01*
X6691Y176691D01*
X9198Y174768D01*
X12117Y173559D01*
X15250Y173146D01*
X18383Y173559D01*
X21302Y174768D01*
X23809Y176691D01*
X25732Y179198D01*
X26941Y182117D01*
X27353Y185250D01*
X26941Y188383D01*
X25732Y191302D01*
X23809Y193808D01*
X21302Y195732D01*
X20703Y195980D01*
X20956Y197250D01*
X83638D01*
X84047Y196047D01*
X83410Y195558D01*
X81486Y193052D01*
X80277Y190133D01*
X79865Y187000D01*
X80277Y183867D01*
X81486Y180948D01*
X83410Y178442D01*
X85916Y176518D01*
X88835Y175309D01*
X91968Y174896D01*
X95101Y175309D01*
X98020Y176518D01*
X100527Y178442D01*
X102450Y180948D01*
X103156Y182652D01*
X104530D01*
X105236Y180948D01*
X107160Y178442D01*
X107211Y178402D01*
X107211Y152289D01*
X79291D01*
X79225Y152276D01*
X79158Y152285D01*
X78837Y152199D01*
X78511Y152134D01*
X78455Y152096D01*
X78390Y152079D01*
X78126Y151877D01*
X77849Y151692D01*
X77812Y151636D01*
X77758Y151594D01*
X77592Y151307D01*
X77407Y151030D01*
X76345Y150266D01*
X74387Y150523D01*
X64387D01*
X62430Y150266D01*
X61368Y151030D01*
X61183Y151307D01*
X61017Y151594D01*
X60963Y151636D01*
X60925Y151692D01*
X60649Y151877D01*
X60386Y152079D01*
X60320Y152096D01*
X60264Y152134D01*
X59938Y152199D01*
X59617Y152285D01*
X59550Y152276D01*
X59484Y152289D01*
X48568D01*
X48371Y152250D01*
X48269D01*
X48152Y152841D01*
X46826Y154826D01*
X44841Y156152D01*
X42500Y156617D01*
X40159Y156152D01*
X38174Y154826D01*
X36848Y152841D01*
X36383Y150500D01*
X36848Y148159D01*
X37213Y147612D01*
X36808Y146219D01*
X36752Y146134D01*
X36674Y146070D01*
X36532Y145806D01*
X36366Y145557D01*
X36346Y145458D01*
X36299Y145368D01*
X36269Y145070D01*
X36211Y144776D01*
Y135834D01*
X35091Y135235D01*
X34841Y135402D01*
X32500Y135868D01*
X30159Y135402D01*
X28174Y134076D01*
X26848Y132091D01*
X26383Y129750D01*
X26848Y127409D01*
X28174Y125424D01*
X30159Y124098D01*
X32500Y123632D01*
X34841Y124098D01*
X35091Y124265D01*
X36211Y123666D01*
Y105250D01*
X36366Y104470D01*
X36808Y103808D01*
X37470Y103366D01*
X38250Y103211D01*
X79282D01*
X79385Y103231D01*
X79598Y102159D01*
X80495Y100816D01*
X80821Y99875D01*
X80495Y98933D01*
X79598Y97591D01*
X79132Y95250D01*
X79598Y92909D01*
X80924Y90924D01*
X82909Y89598D01*
X85250Y89132D01*
X87591Y89598D01*
X89576Y90924D01*
X90902Y92909D01*
X91368Y95250D01*
X92156Y96211D01*
X171250D01*
X172030Y96366D01*
X172692Y96808D01*
X172807Y96981D01*
X174156Y96713D01*
X174408Y95443D01*
X175734Y93458D01*
X177719Y92132D01*
X180060Y91666D01*
X182401Y92132D01*
X184386Y93458D01*
X185712Y95443D01*
X186178Y97784D01*
X186147Y97937D01*
X187234Y98980D01*
X188810Y98667D01*
X191152Y99132D01*
X193136Y100459D01*
X194462Y102443D01*
X194928Y104784D01*
X194462Y107126D01*
X193136Y109110D01*
X191152Y110436D01*
X188810Y110902D01*
X186976Y110537D01*
X185961Y111360D01*
X185875Y111514D01*
X186178Y113035D01*
X186071Y113571D01*
X187151Y114651D01*
X188500Y114382D01*
X190841Y114848D01*
X192826Y116174D01*
X194152Y118159D01*
X194618Y120500D01*
X194152Y122841D01*
X192826Y124826D01*
X190841Y126152D01*
X188500Y126618D01*
X188203Y126558D01*
X187064Y127513D01*
X188204Y128470D01*
X188642Y128383D01*
X190984Y128848D01*
X192968Y130174D01*
X194294Y132159D01*
X194760Y134500D01*
X194294Y136841D01*
X192968Y138826D01*
X190984Y140152D01*
X188642Y140618D01*
X187234Y140337D01*
X186154Y141418D01*
X186178Y141536D01*
X185712Y143877D01*
X184386Y145862D01*
X182401Y147188D01*
X180060Y147654D01*
X177719Y147188D01*
X175734Y145862D01*
X174408Y143877D01*
X173943Y141536D01*
X174408Y139195D01*
X175734Y137210D01*
X177719Y135884D01*
X180060Y135419D01*
X180578Y135522D01*
X181770Y134516D01*
X180579Y133514D01*
X180060Y133617D01*
X177719Y133152D01*
X175734Y131826D01*
X174408Y129841D01*
X173943Y127500D01*
X174408Y125159D01*
X175734Y123174D01*
X177719Y121848D01*
X180060Y121383D01*
X180890Y121547D01*
X181948Y120645D01*
X181966Y119923D01*
X180903Y118985D01*
X180060Y119152D01*
X177719Y118687D01*
X175734Y117360D01*
X174524Y115550D01*
X173819Y115527D01*
X173203Y115684D01*
X173134Y116030D01*
X172692Y116692D01*
X172030Y117134D01*
X171250Y117289D01*
X152167Y117289D01*
X151568Y118409D01*
X151902Y118909D01*
X152367Y121250D01*
X151902Y123591D01*
X150576Y125576D01*
X148591Y126902D01*
X146250Y127367D01*
X143909Y126902D01*
X141924Y125576D01*
X140598Y123591D01*
X140132Y121250D01*
X140598Y118909D01*
X140932Y118409D01*
X140333Y117289D01*
X132389D01*
X131279Y117785D01*
X131192Y118071D01*
X131134Y118365D01*
X131078Y118449D01*
X131048Y118546D01*
X131005Y118599D01*
X130860Y119529D01*
X131062Y120133D01*
X131083Y120185D01*
X132402Y122159D01*
X132868Y124500D01*
X132402Y126841D01*
X131083Y128815D01*
X131062Y128868D01*
X130860Y129471D01*
X131005Y130401D01*
X131048Y130454D01*
X131078Y130551D01*
X131134Y130635D01*
X131192Y130928D01*
X131279Y131215D01*
X131270Y131316D01*
X131289Y131415D01*
X131289Y164676D01*
X131231Y164970D01*
X131201Y165268D01*
X131154Y165357D01*
X131134Y165457D01*
X130968Y165706D01*
X130826Y165970D01*
X130806Y165999D01*
X130692Y166326D01*
Y167174D01*
X130806Y167501D01*
X130826Y167530D01*
X130968Y167794D01*
X131134Y168043D01*
X131154Y168143D01*
X131201Y168232D01*
X131231Y168530D01*
X131289Y168824D01*
Y197250D01*
X131289Y197250D01*
X151072D01*
X151457Y195980D01*
X150895Y195605D01*
X149790Y193951D01*
X149402Y192000D01*
X149716Y190420D01*
X148886Y189291D01*
X148500Y189368D01*
X146159Y188902D01*
X144174Y187576D01*
X142848Y185591D01*
X142382Y183250D01*
X142848Y180909D01*
X144174Y178924D01*
X146159Y177598D01*
X148500Y177132D01*
X149137Y177259D01*
X149901Y176116D01*
X149790Y175951D01*
X149402Y174000D01*
X149790Y172049D01*
X150895Y170395D01*
X152549Y169290D01*
X154500Y168902D01*
X156451Y169290D01*
X158105Y170395D01*
X159210Y172049D01*
X159598Y174000D01*
X159210Y175951D01*
X158105Y177605D01*
X156451Y178710D01*
X154500Y179098D01*
X154465Y179091D01*
X153701Y180234D01*
X154152Y180909D01*
X154618Y183250D01*
X154152Y185591D01*
X154010Y185803D01*
X154768Y186955D01*
X156451Y187290D01*
X158105Y188395D01*
X159210Y190049D01*
X159598Y192000D01*
X159210Y193951D01*
X158105Y195605D01*
X157543Y195980D01*
X157928Y197250D01*
X181318D01*
X181325Y197226D01*
X181610Y195980D01*
X180348Y194091D01*
X179883Y191750D01*
X180348Y189409D01*
X181674Y187424D01*
X183659Y186098D01*
X186000Y185632D01*
X188341Y186098D01*
X190326Y187424D01*
X191652Y189409D01*
X192118Y191750D01*
X191652Y194091D01*
X190390Y195980D01*
X190675Y197226D01*
X190682Y197250D01*
X281430D01*
X282109Y195980D01*
X281348Y194841D01*
X280882Y192500D01*
X281348Y190159D01*
X282674Y188174D01*
X284659Y186848D01*
X287000Y186383D01*
X289341Y186848D01*
X291326Y188174D01*
X292652Y190159D01*
X293118Y192500D01*
X292652Y194841D01*
X291891Y195980D01*
X292570Y197250D01*
X317750D01*
Y143500D01*
D02*
G37*
%LPC*%
G36*
X100000Y148368D02*
X97659Y147902D01*
X95674Y146576D01*
X94348Y144591D01*
X93883Y142250D01*
X94348Y139909D01*
X95674Y137924D01*
X97659Y136598D01*
X100000Y136132D01*
X102341Y136598D01*
X104326Y137924D01*
X105652Y139909D01*
X106117Y142250D01*
X105652Y144591D01*
X104326Y146576D01*
X102341Y147902D01*
X100000Y148368D01*
D02*
G37*
G36*
X115250Y138617D02*
X112909Y138152D01*
X110924Y136826D01*
X109598Y134841D01*
X109132Y132500D01*
X109598Y130159D01*
X110924Y128174D01*
X112909Y126848D01*
X115250Y126382D01*
X117591Y126848D01*
X119576Y128174D01*
X120902Y130159D01*
X121368Y132500D01*
X120902Y134841D01*
X119576Y136826D01*
X117591Y138152D01*
X115250Y138617D01*
D02*
G37*
G36*
X74384Y64133D02*
X64396D01*
X62438Y63875D01*
X60613Y63119D01*
X59047Y61917D01*
X57844Y60350D01*
X57089Y58526D01*
X56831Y56568D01*
X57089Y54610D01*
X57844Y52786D01*
X59047Y51219D01*
X60613Y50017D01*
X62438Y49261D01*
X64396Y49003D01*
X74384D01*
X76342Y49261D01*
X78167Y50017D01*
X79734Y51219D01*
X80936Y52786D01*
X81691Y54610D01*
X81949Y56568D01*
X81691Y58526D01*
X80936Y60350D01*
X79734Y61917D01*
X78167Y63119D01*
X76342Y63875D01*
X74384Y64133D01*
D02*
G37*
G36*
X254750Y53868D02*
X252409Y53402D01*
X250424Y52076D01*
X249098Y50091D01*
X248633Y47750D01*
X249098Y45409D01*
X250424Y43424D01*
X252409Y42098D01*
X254750Y41632D01*
X257091Y42098D01*
X259076Y43424D01*
X260402Y45409D01*
X260868Y47750D01*
X260402Y50091D01*
X259076Y52076D01*
X257091Y53402D01*
X254750Y53868D01*
D02*
G37*
G36*
X217750Y58618D02*
X215409Y58152D01*
X213424Y56826D01*
X212098Y54841D01*
X211632Y52500D01*
X212098Y50159D01*
X213424Y48174D01*
X215409Y46848D01*
X217750Y46382D01*
X220091Y46848D01*
X222076Y48174D01*
X223402Y50159D01*
X223867Y52500D01*
X223402Y54841D01*
X222076Y56826D01*
X220091Y58152D01*
X217750Y58618D01*
D02*
G37*
G36*
X197250Y77118D02*
X194909Y76652D01*
X192924Y75326D01*
X191598Y73341D01*
X191133Y71000D01*
X191598Y68659D01*
X192924Y66674D01*
X194909Y65348D01*
X197250Y64882D01*
X199591Y65348D01*
X201576Y66674D01*
X202902Y68659D01*
X203368Y71000D01*
X202902Y73341D01*
X201576Y75326D01*
X199591Y76652D01*
X197250Y77118D01*
D02*
G37*
G36*
X49250Y75118D02*
X46909Y74652D01*
X44924Y73326D01*
X43598Y71341D01*
X43133Y69000D01*
X43598Y66659D01*
X44924Y64675D01*
X44896Y64169D01*
X43893Y63390D01*
X42750Y63618D01*
X40409Y63152D01*
X38424Y61826D01*
X37098Y59841D01*
X36632Y57500D01*
X37098Y55159D01*
X38424Y53175D01*
X40409Y51849D01*
X42750Y51383D01*
X45091Y51849D01*
X47075Y53175D01*
X48401Y55159D01*
X48867Y57500D01*
X48401Y59841D01*
X47075Y61826D01*
X47103Y62332D01*
X48107Y63110D01*
X49250Y62883D01*
X51591Y63348D01*
X53576Y64675D01*
X54902Y66659D01*
X55368Y69000D01*
X54902Y71341D01*
X53576Y73326D01*
X51591Y74652D01*
X49250Y75118D01*
D02*
G37*
G36*
X143500Y69868D02*
X141159Y69402D01*
X139174Y68076D01*
X137848Y66091D01*
X137382Y63750D01*
X137848Y61409D01*
X139174Y59424D01*
X141159Y58098D01*
X143500Y57632D01*
X145841Y58098D01*
X147826Y59424D01*
X149152Y61409D01*
X149618Y63750D01*
X149152Y66091D01*
X147826Y68076D01*
X145841Y69402D01*
X143500Y69868D01*
D02*
G37*
G36*
X86000Y52867D02*
X83659Y52402D01*
X81674Y51076D01*
X80348Y49091D01*
X79882Y46750D01*
X80348Y44409D01*
X81674Y42424D01*
X83659Y41098D01*
X86000Y40632D01*
X88341Y41098D01*
X90326Y42424D01*
X91652Y44409D01*
X92118Y46750D01*
X91652Y49091D01*
X90326Y51076D01*
X88341Y52402D01*
X86000Y52867D01*
D02*
G37*
G36*
X90264Y31381D02*
X87922Y30916D01*
X85938Y29589D01*
X84612Y27605D01*
X84146Y25264D01*
X84612Y22922D01*
X85938Y20938D01*
X87922Y19612D01*
X90264Y19146D01*
X92605Y19612D01*
X94589Y20938D01*
X95915Y22922D01*
X96381Y25264D01*
X95915Y27605D01*
X94589Y29589D01*
X92605Y30916D01*
X90264Y31381D01*
D02*
G37*
G36*
X160750Y30868D02*
X158409Y30402D01*
X156424Y29076D01*
X155098Y27091D01*
X154633Y24750D01*
X155098Y22409D01*
X156424Y20424D01*
X158409Y19098D01*
X160750Y18632D01*
X163091Y19098D01*
X165076Y20424D01*
X166402Y22409D01*
X166868Y24750D01*
X166402Y27091D01*
X165076Y29076D01*
X163091Y30402D01*
X160750Y30868D01*
D02*
G37*
G36*
X62814Y27054D02*
X60473Y26588D01*
X58488Y25262D01*
X57162Y23277D01*
X56696Y20936D01*
X57162Y18595D01*
X58488Y16610D01*
X60473Y15284D01*
X62814Y14819D01*
X65155Y15284D01*
X67140Y16610D01*
X68466Y18595D01*
X68931Y20936D01*
X68466Y23277D01*
X67140Y25262D01*
X65155Y26588D01*
X62814Y27054D01*
D02*
G37*
G36*
X253250Y36367D02*
X250909Y35902D01*
X248924Y34576D01*
X247598Y32591D01*
X247132Y30250D01*
X247598Y27909D01*
X248924Y25924D01*
X250909Y24598D01*
X253250Y24132D01*
X255591Y24598D01*
X257576Y25924D01*
X258902Y27909D01*
X259368Y30250D01*
X258902Y32591D01*
X257576Y34576D01*
X255591Y35902D01*
X253250Y36367D01*
D02*
G37*
G36*
X198827Y35175D02*
X196486Y34710D01*
X194501Y33384D01*
X193175Y31399D01*
X192709Y29058D01*
X193175Y26717D01*
X194501Y24732D01*
X196486Y23406D01*
X198827Y22940D01*
X201168Y23406D01*
X203152Y24732D01*
X204478Y26717D01*
X204944Y29058D01*
X204478Y31399D01*
X203152Y33384D01*
X201168Y34710D01*
X198827Y35175D01*
D02*
G37*
G36*
X107500Y33117D02*
X105159Y32652D01*
X103174Y31326D01*
X101848Y29341D01*
X101383Y27000D01*
X101848Y24659D01*
X103174Y22674D01*
X105159Y21348D01*
X107500Y20882D01*
X109841Y21348D01*
X111826Y22674D01*
X113152Y24659D01*
X113618Y27000D01*
X113152Y29341D01*
X111826Y31326D01*
X109841Y32652D01*
X107500Y33117D01*
D02*
G37*
G36*
X106049Y87819D02*
X103708Y87353D01*
X101723Y86027D01*
X100397Y84043D01*
X99931Y81701D01*
X100397Y79360D01*
X101723Y77376D01*
X101787Y77333D01*
Y76063D01*
X101481Y75858D01*
X100154Y73874D01*
X99689Y71533D01*
X100154Y69192D01*
X101481Y67207D01*
X103465Y65881D01*
X105806Y65415D01*
X108147Y65881D01*
X110132Y67207D01*
X111458Y69192D01*
X111924Y71533D01*
X111458Y73874D01*
X110132Y75858D01*
X110068Y75901D01*
Y77171D01*
X110374Y77376D01*
X111700Y79360D01*
X112166Y81701D01*
X111700Y84043D01*
X110374Y86027D01*
X108390Y87353D01*
X106049Y87819D01*
D02*
G37*
G36*
X270250Y169368D02*
X267909Y168902D01*
X265924Y167576D01*
X264598Y165591D01*
X264132Y163250D01*
X264598Y160909D01*
X265924Y158924D01*
X267909Y157598D01*
X270250Y157133D01*
X272591Y157598D01*
X274576Y158924D01*
X275902Y160909D01*
X276367Y163250D01*
X275902Y165591D01*
X274576Y167576D01*
X272591Y168902D01*
X270250Y169368D01*
D02*
G37*
G36*
X202811Y166905D02*
X200470Y166439D01*
X198485Y165113D01*
X197159Y163128D01*
X196694Y160787D01*
X197159Y158446D01*
X198485Y156461D01*
X200470Y155135D01*
X202811Y154670D01*
X205152Y155135D01*
X207137Y156461D01*
X208463Y158446D01*
X208929Y160787D01*
X208463Y163128D01*
X207137Y165113D01*
X205152Y166439D01*
X202811Y166905D01*
D02*
G37*
G36*
X257476Y151868D02*
X255135Y151402D01*
X253150Y150076D01*
X252209Y148668D01*
X250742D01*
X249802Y150076D01*
X247817Y151402D01*
X245476Y151868D01*
X243135Y151402D01*
X241150Y150076D01*
X240210Y148668D01*
X238743D01*
X237802Y150076D01*
X235817Y151402D01*
X233476Y151868D01*
X231135Y151402D01*
X229150Y150076D01*
X228209Y148668D01*
X226742D01*
X225802Y150076D01*
X223817Y151402D01*
X221476Y151868D01*
X219135Y151402D01*
X217150Y150076D01*
X215824Y148091D01*
X215359Y145750D01*
X215824Y143409D01*
X217150Y141424D01*
X218558Y140484D01*
Y139017D01*
X217150Y138076D01*
X215824Y136091D01*
X215359Y133750D01*
X215824Y131409D01*
X217150Y129424D01*
X218558Y128483D01*
Y127016D01*
X217150Y126076D01*
X215824Y124091D01*
X215359Y121750D01*
X215824Y119409D01*
X217150Y117424D01*
X218558Y116483D01*
Y115016D01*
X217150Y114076D01*
X215824Y112091D01*
X215359Y109750D01*
X215824Y107409D01*
X217150Y105424D01*
X219135Y104098D01*
X221476Y103632D01*
X223817Y104098D01*
X225802Y105424D01*
X226742Y106832D01*
X228209D01*
X229150Y105424D01*
X231135Y104098D01*
X233476Y103632D01*
X235817Y104098D01*
X237802Y105424D01*
X238743Y106832D01*
X240210D01*
X241150Y105424D01*
X243135Y104098D01*
X245476Y103632D01*
X247817Y104098D01*
X249802Y105424D01*
X250742Y106832D01*
X252209D01*
X253150Y105424D01*
X255135Y104098D01*
X257476Y103632D01*
X259817Y104098D01*
X261802Y105424D01*
X263128Y107409D01*
X263594Y109750D01*
X263128Y112091D01*
X261802Y114076D01*
X260394Y115016D01*
Y116483D01*
X261802Y117424D01*
X263128Y119409D01*
X263594Y121750D01*
X263128Y124091D01*
X261802Y126076D01*
X260394Y127016D01*
Y128483D01*
X261802Y129424D01*
X263128Y131409D01*
X263594Y133750D01*
X263128Y136091D01*
X261802Y138076D01*
X260394Y139017D01*
Y140484D01*
X261802Y141424D01*
X263128Y143409D01*
X263594Y145750D01*
X263128Y148091D01*
X261802Y150076D01*
X259817Y151402D01*
X257476Y151868D01*
D02*
G37*
G36*
X65253Y186626D02*
X62912Y186161D01*
X60927Y184835D01*
X60704Y184500D01*
X59104Y184391D01*
X57591Y185402D01*
X55250Y185868D01*
X52909Y185402D01*
X50924Y184076D01*
X49598Y182091D01*
X49132Y179750D01*
X49598Y177409D01*
X50924Y175424D01*
X52909Y174098D01*
X55250Y173633D01*
X57591Y174098D01*
X59576Y175424D01*
X59799Y175759D01*
X61238Y175976D01*
X62912Y174857D01*
X65253Y174391D01*
X67594Y174857D01*
X69579Y176183D01*
X70905Y178168D01*
X71371Y180509D01*
X70905Y182850D01*
X69579Y184835D01*
X67594Y186161D01*
X65253Y186626D01*
D02*
G37*
G36*
X256750Y184867D02*
X254409Y184402D01*
X252424Y183076D01*
X251098Y181091D01*
X250765Y179419D01*
X249511Y178374D01*
X249000Y178475D01*
X246659Y178010D01*
X245786Y177426D01*
X244488Y178086D01*
X243326Y179826D01*
X241341Y181152D01*
X239000Y181618D01*
X236659Y181152D01*
X234674Y179826D01*
X233348Y177841D01*
X232882Y175500D01*
X233082Y174498D01*
X232222Y173337D01*
X230222Y172939D01*
X228237Y171613D01*
X226911Y169629D01*
X226445Y167287D01*
X226911Y164946D01*
X228237Y162962D01*
X230222Y161635D01*
X232563Y161170D01*
X234904Y161635D01*
X236888Y162962D01*
X238214Y164946D01*
X238680Y167287D01*
X238481Y168289D01*
X239341Y169450D01*
X241341Y169848D01*
X242214Y170431D01*
X243512Y169771D01*
X244674Y168032D01*
X246659Y166706D01*
X249000Y166240D01*
X251341Y166706D01*
X253326Y168032D01*
X254652Y170017D01*
X254984Y171689D01*
X256239Y172734D01*
X256750Y172632D01*
X259091Y173098D01*
X261076Y174424D01*
X262402Y176409D01*
X262868Y178750D01*
X262402Y181091D01*
X261076Y183076D01*
X259091Y184402D01*
X256750Y184867D01*
D02*
G37*
G36*
X84497Y169870D02*
X82156Y169405D01*
X80172Y168078D01*
X78846Y166094D01*
X78380Y163753D01*
X78846Y161411D01*
X80172Y159427D01*
X82156Y158101D01*
X84497Y157635D01*
X86839Y158101D01*
X88823Y159427D01*
X90149Y161411D01*
X90615Y163753D01*
X90149Y166094D01*
X88823Y168078D01*
X86839Y169405D01*
X84497Y169870D01*
D02*
G37*
G36*
X179500Y85618D02*
X177159Y85152D01*
X175174Y83826D01*
X173848Y81841D01*
X173382Y79500D01*
X173848Y77159D01*
X175174Y75174D01*
X177159Y73848D01*
X179500Y73383D01*
X181841Y73848D01*
X183826Y75174D01*
X185152Y77159D01*
X185618Y79500D01*
X185152Y81841D01*
X183826Y83826D01*
X181841Y85152D01*
X179500Y85618D01*
D02*
G37*
G36*
X129750Y84117D02*
X127409Y83652D01*
X125424Y82326D01*
X124098Y80341D01*
X123632Y78000D01*
X124098Y75659D01*
X125424Y73674D01*
X127409Y72348D01*
X129750Y71883D01*
X132091Y72348D01*
X134076Y73674D01*
X135402Y75659D01*
X135868Y78000D01*
X135402Y80341D01*
X134076Y82326D01*
X132091Y83652D01*
X129750Y84117D01*
D02*
G37*
G36*
X83500Y82367D02*
X81159Y81902D01*
X79174Y80576D01*
X77848Y78591D01*
X77382Y76250D01*
X77848Y73909D01*
X79174Y71924D01*
X81159Y70598D01*
X83500Y70132D01*
X85841Y70598D01*
X87826Y71924D01*
X89152Y73909D01*
X89618Y76250D01*
X89152Y78591D01*
X87826Y80576D01*
X85841Y81902D01*
X83500Y82367D01*
D02*
G37*
G36*
X277533Y104868D02*
X275191Y104402D01*
X273207Y103076D01*
X271881Y101091D01*
X271835Y100863D01*
X270946Y100494D01*
X270455Y100435D01*
X268283Y100868D01*
X265942Y100402D01*
X263957Y99076D01*
X262631Y97091D01*
X262165Y94750D01*
X262631Y92409D01*
X263957Y90424D01*
X265942Y89098D01*
X268283Y88632D01*
X270624Y89098D01*
X272608Y90424D01*
X273934Y92409D01*
X273980Y92638D01*
X274869Y93006D01*
X275360Y93065D01*
X277533Y92633D01*
X279874Y93098D01*
X280267Y93361D01*
X281564Y92700D01*
X281913Y90943D01*
X283239Y88958D01*
X285224Y87632D01*
X287565Y87166D01*
X289906Y87632D01*
X291891Y88958D01*
X293217Y90943D01*
X293683Y93284D01*
X293217Y95625D01*
X291891Y97610D01*
X289906Y98936D01*
X287565Y99401D01*
X285224Y98936D01*
X284831Y98673D01*
X283534Y99334D01*
X283185Y101091D01*
X281858Y103076D01*
X279874Y104402D01*
X277533Y104868D01*
D02*
G37*
G36*
X200500Y101368D02*
X198159Y100902D01*
X196174Y99576D01*
X194848Y97591D01*
X194382Y95250D01*
X194848Y92909D01*
X196174Y90924D01*
X198159Y89598D01*
X200500Y89132D01*
X202841Y89598D01*
X204826Y90924D01*
X206152Y92909D01*
X206618Y95250D01*
X206152Y97591D01*
X204826Y99576D01*
X202841Y100902D01*
X200500Y101368D01*
D02*
G37*
%LPD*%
D49*
X148250Y13500D02*
D03*
X115718Y187000D02*
D03*
D54*
X286250Y62500D02*
D03*
X263250Y170608D02*
D03*
X229000Y32437D02*
D03*
X186560Y179038D02*
D03*
X75805Y192289D02*
D03*
X32250Y104250D02*
D03*
X109500Y49500D02*
D03*
X34500Y8750D02*
D03*
X278250Y25000D02*
D03*
X207750Y74500D02*
D03*
X166809Y104784D02*
D03*
X88004Y134507D02*
D03*
X165258Y49502D02*
D03*
D55*
X280250Y188647D02*
X280500Y188897D01*
X280250Y188647D02*
X280497Y188400D01*
X279250Y187153D02*
X280497Y185905D01*
X279250Y187153D02*
X280497Y188400D01*
X278500Y190896D02*
X280500Y188897D01*
X277729Y183137D02*
X280497Y185905D01*
X277729Y178595D02*
X280000Y180866D01*
X277729Y183137D02*
X280000Y180866D01*
X278500Y190896D02*
X279104Y191500D01*
X277729Y174746D02*
Y178595D01*
X232058Y34442D02*
X232250Y34250D01*
X34500Y8750D02*
X34500Y8750D01*
X207750Y74500D02*
X208750D01*
M02*
