G04 Layer_Physical_Order=4*
G04 Layer_Color=16711680*
%FSLAX44Y44*%
%MOMM*%
G71*
G01*
G75*
%ADD10R,0.6000X0.6000*%
%ADD11R,0.8000X0.7000*%
%ADD20R,0.6000X0.6000*%
%ADD26R,0.9000X0.8000*%
%ADD43C,0.2000*%
%ADD46C,0.3000*%
%ADD49C,2.0000*%
%ADD50C,0.6000*%
%ADD51O,2.5989X1.1000*%
%ADD52O,2.1000X1.1000*%
%ADD53O,2.0989X1.1000*%
%ADD54C,0.8000*%
%ADD56R,1.5500X1.1500*%
%ADD57R,1.1000X0.6000*%
%ADD58R,1.1000X1.5000*%
%ADD59R,1.0000X0.6500*%
%ADD60C,1.5000*%
%ADD61C,1.0000*%
%ADD62C,0.5000*%
%ADD63C,0.6000*%
G36*
X144709Y85853D02*
X144180Y84577D01*
X143940Y82750D01*
X144180Y80923D01*
X144375Y80451D01*
X126733Y62809D01*
X114106D01*
X113455Y64379D01*
X115163Y66087D01*
X115826Y67080D01*
X116059Y68250D01*
X116059Y68250D01*
Y70733D01*
X129517Y84191D01*
X139375D01*
X139375Y84191D01*
X140546Y84424D01*
X141538Y85087D01*
X143267Y86816D01*
X144709Y85853D01*
D02*
G37*
G36*
X243399Y195663D02*
X243385Y195491D01*
X241474Y194025D01*
X239952Y192041D01*
X238995Y189730D01*
X238668Y187250D01*
X238995Y184770D01*
X239635Y183225D01*
X239419Y182680D01*
X238685Y181607D01*
X238574Y181533D01*
X236659Y181152D01*
X234674Y179826D01*
X233348Y177841D01*
X232882Y175500D01*
X232998Y174920D01*
X231800Y173253D01*
X230222Y172939D01*
X228237Y171613D01*
X226911Y169629D01*
X226445Y167287D01*
X226742Y165793D01*
X225258Y164309D01*
X213174D01*
X213174Y164309D01*
X212003Y164076D01*
X211011Y163413D01*
X211011Y163413D01*
X204444Y156846D01*
X196387D01*
X193182Y160051D01*
X192190Y160714D01*
X191019Y160946D01*
X191019Y160946D01*
X182750D01*
Y163742D01*
X177750D01*
Y164742D01*
X176750D01*
Y169742D01*
X172249D01*
X172038Y171442D01*
X173295Y172494D01*
X177755D01*
Y181515D01*
X179455Y182219D01*
X180807Y180868D01*
X180443Y179038D01*
X180909Y176697D01*
X182235Y174712D01*
X184219Y173386D01*
X186560Y172920D01*
X188901Y173386D01*
X190886Y174712D01*
X192212Y176697D01*
X192678Y179038D01*
X192212Y181379D01*
X190886Y183364D01*
X188901Y184690D01*
X186560Y185156D01*
X185401Y184925D01*
X178666Y191660D01*
X178000Y192105D01*
Y194497D01*
X159832D01*
X159136Y194824D01*
X158498Y195612D01*
X158913Y197191D01*
X242800D01*
X243399Y195663D01*
D02*
G37*
G36*
X116581Y169288D02*
X116578Y168991D01*
X116132Y166750D01*
X116598Y164409D01*
X117924Y162424D01*
X119799Y161171D01*
X119915Y161080D01*
X120476Y159252D01*
X120415Y159161D01*
X120182Y157991D01*
X120182Y157991D01*
Y147252D01*
X116241D01*
Y136752D01*
X130241D01*
X130743Y135260D01*
Y133000D01*
X140743D01*
Y138477D01*
X167148D01*
X167663Y136777D01*
X167492Y136663D01*
X143638Y112809D01*
X134753D01*
Y116000D01*
X124753D01*
X123319Y116643D01*
X122670Y117076D01*
X122000Y117209D01*
Y121500D01*
X110000D01*
Y110500D01*
X119509D01*
X119710Y110200D01*
X118801Y108500D01*
X117000D01*
Y103000D01*
Y97500D01*
X120456D01*
X121160Y95800D01*
X111297Y85936D01*
X110374Y86027D01*
X108390Y87353D01*
X106049Y87819D01*
X103708Y87353D01*
X101723Y86027D01*
X100397Y84043D01*
X99931Y81701D01*
X100397Y79360D01*
X101723Y77376D01*
Y76020D01*
X101481Y75858D01*
X100154Y73874D01*
X99689Y71533D01*
X99893Y70509D01*
X98521Y68809D01*
X93651D01*
X92743Y69992D01*
X91280Y71115D01*
X89577Y71820D01*
X87750Y72060D01*
X85923Y71820D01*
X84220Y71115D01*
X82758Y69992D01*
X81849Y68809D01*
X56250D01*
X55079Y68576D01*
X54087Y67913D01*
X54087Y67913D01*
X47917Y61743D01*
X47075Y61826D01*
X45091Y63152D01*
X42750Y63618D01*
X40409Y63152D01*
X38424Y61826D01*
X37098Y59841D01*
X36632Y57500D01*
X37098Y55159D01*
X38424Y53175D01*
X40409Y51849D01*
X42750Y51383D01*
X45091Y51849D01*
X47075Y53175D01*
X47922Y54442D01*
X48000D01*
X48000Y54441D01*
X49171Y54674D01*
X50163Y55338D01*
X55666Y60840D01*
X57107Y59877D01*
X56602Y58657D01*
X56491Y57818D01*
X69390D01*
Y56568D01*
X70640D01*
Y48499D01*
X74384D01*
X76473Y48774D01*
X78419Y49580D01*
X78921Y49965D01*
X79856Y49392D01*
X80308Y48886D01*
X79882Y46750D01*
X80348Y44409D01*
X81674Y42424D01*
X83659Y41098D01*
X86000Y40632D01*
X88341Y41098D01*
X89045Y41568D01*
X90745Y40660D01*
Y34500D01*
X105745D01*
Y42905D01*
X107445Y43791D01*
X109500Y43382D01*
X110298Y43541D01*
X111998Y42146D01*
Y32750D01*
X113410D01*
Y31502D01*
X113759Y29746D01*
X114754Y28258D01*
X117624Y25387D01*
X117417Y23191D01*
X115941Y22058D01*
X114018Y19552D01*
X113412Y18088D01*
X105745D01*
Y21500D01*
X96814D01*
X95970Y23200D01*
X96381Y25264D01*
X95915Y27605D01*
X94589Y29589D01*
X92605Y30916D01*
X90264Y31381D01*
X87922Y30916D01*
X85938Y29589D01*
X85249Y28559D01*
X82000D01*
Y30500D01*
X72000D01*
Y19559D01*
X69997D01*
X68919Y20873D01*
X68931Y20936D01*
X68466Y23277D01*
X67140Y25262D01*
X65155Y26588D01*
X62814Y27054D01*
X60473Y26588D01*
X58488Y25262D01*
X57162Y23277D01*
X57044Y22686D01*
X55200Y22126D01*
X52163Y25163D01*
X51171Y25826D01*
X50000Y26059D01*
X50000Y26059D01*
X29017D01*
X27309Y27767D01*
Y29500D01*
X29000D01*
Y39500D01*
X11437D01*
X9865Y39552D01*
X9341Y39902D01*
X8533Y40063D01*
X8533Y40063D01*
X8279Y40113D01*
X7000Y40367D01*
X5009Y39971D01*
X3309Y40889D01*
Y48302D01*
X5009Y49267D01*
X6198Y48774D01*
X8286Y48499D01*
X14531D01*
Y56568D01*
X15781D01*
Y57818D01*
X31180D01*
X31069Y58657D01*
X30263Y60603D01*
X28981Y62274D01*
X28980Y62275D01*
X29557Y63975D01*
X32495D01*
Y79475D01*
X12995D01*
X12873Y81124D01*
Y85211D01*
X33645D01*
X35248Y84975D01*
X35248Y83511D01*
Y79975D01*
X41747D01*
X48248D01*
X48248Y84975D01*
X49850Y85211D01*
X51750D01*
X52530Y85366D01*
X53192Y85808D01*
X53634Y86470D01*
X53789Y87250D01*
Y104250D01*
X53639Y105037D01*
X54737Y106439D01*
X54983Y106488D01*
X56472Y107483D01*
X56984Y108250D01*
X57600Y108662D01*
X61261D01*
Y105250D01*
X74261D01*
Y108662D01*
X74500D01*
X76255Y109011D01*
X77744Y110005D01*
X91249Y123510D01*
X92243Y124999D01*
X92592Y126754D01*
Y127252D01*
X96182D01*
Y115000D01*
X93500D01*
Y104000D01*
X105500D01*
Y115000D01*
X102299D01*
Y127252D01*
X106241D01*
Y127840D01*
X106252Y129444D01*
X107423Y129677D01*
X108415Y130339D01*
X109163Y131087D01*
X109826Y132079D01*
X110059Y133250D01*
Y159505D01*
X112500D01*
Y169505D01*
X113709Y170691D01*
X115709D01*
X116581Y169288D01*
D02*
G37*
G36*
X332750Y3309D02*
X157325D01*
X156953Y4404D01*
X156860Y5009D01*
X158732Y7448D01*
X159941Y10367D01*
X160354Y13500D01*
X159941Y16633D01*
X158732Y19552D01*
X156809Y22058D01*
X154302Y23982D01*
X151383Y25191D01*
X148250Y25604D01*
X145117Y25191D01*
X142198Y23982D01*
X139691Y22058D01*
X137768Y19552D01*
X137295Y18410D01*
X135455D01*
X134982Y19552D01*
X133059Y22058D01*
X130552Y23982D01*
X130477Y24013D01*
X130343Y24550D01*
X131669Y26250D01*
X133498D01*
Y30750D01*
X128498D01*
Y29895D01*
X126798Y29191D01*
X124677Y31312D01*
X123998Y32750D01*
X123998D01*
X123998Y32750D01*
Y43750D01*
X114754D01*
X114321Y44413D01*
X114010Y45450D01*
X115152Y47159D01*
X115618Y49500D01*
X115152Y51841D01*
X113826Y53826D01*
X112081Y54991D01*
X112123Y55981D01*
X112364Y56691D01*
X128000D01*
X128000Y56691D01*
X129171Y56924D01*
X130163Y57587D01*
X148701Y76125D01*
X149173Y75930D01*
X151000Y75690D01*
X152827Y75930D01*
X154174Y76488D01*
X155221Y75951D01*
X155749Y75428D01*
X155646Y74643D01*
X155886Y72815D01*
X156592Y71112D01*
X157713Y69650D01*
X157819Y68044D01*
X146087Y56312D01*
X145424Y55320D01*
X145191Y54149D01*
X145191Y54149D01*
Y50750D01*
X143250D01*
Y47809D01*
X140498D01*
Y50250D01*
X128498D01*
Y39250D01*
X140498D01*
Y41691D01*
X143250D01*
Y37750D01*
X153250D01*
Y40750D01*
Y50750D01*
X151309D01*
Y52882D01*
X164869Y66442D01*
X164869Y66442D01*
X165532Y67435D01*
X165706Y68309D01*
X166236Y68528D01*
X167698Y69650D01*
X168820Y71112D01*
X169526Y72815D01*
X169766Y74643D01*
X169526Y76470D01*
X168820Y78173D01*
X167698Y79635D01*
X167593Y81241D01*
X178357Y92005D01*
X180060Y91666D01*
X182401Y92132D01*
X184386Y93458D01*
X185712Y95443D01*
X186140Y97597D01*
X186181Y97787D01*
X187691Y98890D01*
X188810Y98667D01*
X191152Y99132D01*
X193136Y100459D01*
X194462Y102443D01*
X194928Y104784D01*
X194462Y107126D01*
X193136Y109110D01*
X191152Y110436D01*
X188810Y110902D01*
X187805Y110702D01*
X186467Y111872D01*
X186511Y113404D01*
X187790Y114524D01*
X188500Y114382D01*
X190841Y114848D01*
X192826Y116174D01*
X194152Y118159D01*
X194618Y120500D01*
X194152Y122841D01*
X192826Y124826D01*
X190841Y126152D01*
X188500Y126618D01*
X187883Y127467D01*
X188642Y128383D01*
X190984Y128848D01*
X192968Y130174D01*
X194294Y132159D01*
X194760Y134500D01*
X194601Y135298D01*
X195600Y135979D01*
X196168Y136134D01*
X197470Y135136D01*
X199173Y134430D01*
X201000Y134190D01*
X202827Y134430D01*
X204530Y135136D01*
X205993Y136258D01*
X207115Y137720D01*
X207331Y138242D01*
X208247Y138424D01*
X209240Y139087D01*
X219844Y149691D01*
X237750D01*
X237750Y149691D01*
X238920Y149924D01*
X239913Y150587D01*
X251163Y161837D01*
X251826Y162829D01*
X252059Y164000D01*
X252059Y164000D01*
Y167185D01*
X253326Y168032D01*
X254652Y170017D01*
X254903Y171278D01*
X255566Y171446D01*
X256048Y171188D01*
X257215Y170190D01*
X257598Y168267D01*
X258924Y166282D01*
X260909Y164956D01*
X262669Y164606D01*
X263843Y163518D01*
X264193Y162945D01*
X264598Y160909D01*
X265924Y158924D01*
X267909Y157598D01*
X270250Y157133D01*
X272591Y157598D01*
X274576Y158924D01*
X275902Y160909D01*
X276367Y163250D01*
X275902Y165591D01*
X274576Y167576D01*
X274410Y169258D01*
X275413Y170261D01*
X276076Y171254D01*
X276309Y172424D01*
X276309Y172424D01*
Y178234D01*
X278041Y178952D01*
X280025Y180474D01*
X281548Y182459D01*
X282505Y184770D01*
X282832Y187250D01*
X282505Y189730D01*
X281548Y192041D01*
X280025Y194025D01*
X278115Y195491D01*
X278101Y195663D01*
X278700Y197191D01*
X292799D01*
X293399Y195663D01*
X293385Y195491D01*
X291474Y194025D01*
X289952Y192041D01*
X288995Y189730D01*
X288800Y188250D01*
X307700D01*
X307505Y189730D01*
X306548Y192041D01*
X305025Y194025D01*
X303115Y195491D01*
X303101Y195663D01*
X303700Y197191D01*
X332750D01*
Y3309D01*
D02*
G37*
G36*
X107015Y196096D02*
X107108Y195491D01*
X105236Y193052D01*
X104027Y190133D01*
X103615Y187000D01*
X104027Y183867D01*
X105236Y180948D01*
X107108Y178509D01*
X107015Y177904D01*
X106643Y176809D01*
X94495D01*
X93324Y176576D01*
X92332Y175913D01*
X85992Y169573D01*
X84497Y169870D01*
X82156Y169405D01*
X80172Y168078D01*
X79700Y167372D01*
X78000Y167888D01*
Y172000D01*
X74000D01*
Y167000D01*
X72000D01*
Y172000D01*
X68312D01*
Y175336D01*
X69579Y176183D01*
X70905Y178168D01*
X71371Y180509D01*
X70905Y182850D01*
X69579Y184835D01*
X67594Y186161D01*
X65253Y186626D01*
X62912Y186161D01*
X61056Y184920D01*
X59576Y184076D01*
X57591Y185402D01*
X55250Y185868D01*
X52909Y185402D01*
X50924Y184076D01*
X49598Y182091D01*
X49132Y179750D01*
X49598Y177409D01*
X50580Y175939D01*
X51216Y174503D01*
Y164503D01*
Y155502D01*
X61216D01*
Y157536D01*
X61923Y157676D01*
X62915Y158339D01*
X66300Y161724D01*
X68000Y161020D01*
Y153000D01*
X78000D01*
Y153550D01*
X78745Y154941D01*
X79915Y155174D01*
X80908Y155837D01*
X83003Y157932D01*
X84497Y157635D01*
X86839Y158101D01*
X88823Y159427D01*
X90149Y161411D01*
X90615Y163753D01*
X90318Y165247D01*
X91930Y166859D01*
X93500Y166208D01*
Y159505D01*
X93912D01*
Y156752D01*
X92241D01*
Y155341D01*
X91502D01*
X89747Y154991D01*
X88258Y153997D01*
X85006Y150744D01*
X84011Y149256D01*
X83662Y147500D01*
Y145916D01*
X81962Y145577D01*
X81376Y146993D01*
X80093Y148664D01*
X78422Y149946D01*
X76476Y150753D01*
X74387Y151028D01*
X70637D01*
Y142958D01*
Y134889D01*
X74387D01*
X76476Y135164D01*
X78422Y135971D01*
X80093Y137253D01*
X81376Y138924D01*
X81410Y139006D01*
X83201Y138888D01*
X83348Y138338D01*
X82352Y136848D01*
X81887Y134507D01*
X82352Y132165D01*
X83416Y130574D01*
Y128655D01*
X75961Y121199D01*
X74261Y121903D01*
Y125250D01*
X68761D01*
Y120250D01*
X71487D01*
X72337Y118550D01*
X71802Y117838D01*
X58076D01*
Y124470D01*
X57804Y125836D01*
X57031Y126993D01*
X55273Y128751D01*
X54116Y129524D01*
X53668Y129613D01*
X53507Y129774D01*
Y134727D01*
X38507D01*
Y124727D01*
Y120442D01*
X37353Y119615D01*
X36807Y119428D01*
X36250Y119539D01*
X12873D01*
Y124376D01*
X13126Y124629D01*
X20007D01*
X20500Y124727D01*
X27507D01*
Y134727D01*
X27507Y134727D01*
X27766Y136320D01*
X28981Y137253D01*
X30263Y138924D01*
X31069Y140870D01*
X31180Y141709D01*
X15781D01*
Y142958D01*
X14531D01*
Y151028D01*
X8286D01*
X6198Y150753D01*
X5009Y150260D01*
X3309Y151224D01*
Y178436D01*
X3718Y178650D01*
X5009Y178884D01*
X6691Y176691D01*
X9198Y174768D01*
X12117Y173559D01*
X15250Y173146D01*
X18383Y173559D01*
X21302Y174768D01*
X23809Y176691D01*
X25732Y179198D01*
X26941Y182117D01*
X27353Y185250D01*
X26941Y188383D01*
X25732Y191302D01*
X23809Y193808D01*
X21616Y195491D01*
X21849Y196781D01*
X22064Y197191D01*
X69820D01*
X70729Y195491D01*
X70153Y194630D01*
X69687Y192289D01*
X70153Y189947D01*
X71479Y187963D01*
X73464Y186637D01*
X75805Y186171D01*
X78146Y186637D01*
X80131Y187963D01*
X81457Y189947D01*
X81923Y192289D01*
X81457Y194630D01*
X80881Y195491D01*
X81790Y197191D01*
X106643D01*
X107015Y196096D01*
D02*
G37*
G36*
X36250Y104250D02*
X51750D01*
Y87250D01*
X12873D01*
Y117500D01*
X36250D01*
Y104250D01*
D02*
G37*
%LPC*%
G36*
X182750Y169742D02*
X178750D01*
Y165742D01*
X182750D01*
Y169742D01*
D02*
G37*
G36*
X68140Y55318D02*
X56491D01*
X56602Y54480D01*
X57408Y52533D01*
X58690Y50862D01*
X60361Y49580D01*
X62307Y48774D01*
X64396Y48499D01*
X68140D01*
Y55318D01*
D02*
G37*
G36*
X31180Y55318D02*
X17031D01*
Y48499D01*
X23275D01*
X25364Y48774D01*
X27310Y49580D01*
X28981Y50862D01*
X30263Y52533D01*
X31069Y54480D01*
X31180Y55318D01*
D02*
G37*
G36*
X48248Y77975D02*
X42748D01*
Y72975D01*
X48248D01*
Y77975D01*
D02*
G37*
G36*
X40747D02*
X35248D01*
Y72975D01*
X40747D01*
Y77975D01*
D02*
G37*
G36*
X115000Y108500D02*
X110000D01*
Y104000D01*
X115000D01*
Y108500D01*
D02*
G37*
G36*
Y102000D02*
X110000D01*
Y97500D01*
X115000D01*
Y102000D01*
D02*
G37*
G36*
X134743Y131000D02*
X130743D01*
Y127000D01*
X134743D01*
Y131000D01*
D02*
G37*
G36*
X140743D02*
X136743D01*
Y127000D01*
X140743D01*
Y131000D01*
D02*
G37*
G36*
X165258Y55620D02*
X162917Y55154D01*
X160932Y53828D01*
X159606Y51844D01*
X159141Y49502D01*
X159606Y47161D01*
X160932Y45177D01*
X162917Y43850D01*
X165258Y43385D01*
X167599Y43850D01*
X169584Y45177D01*
X170910Y47161D01*
X171376Y49502D01*
X170910Y51844D01*
X169584Y53828D01*
X167599Y55154D01*
X165258Y55620D01*
D02*
G37*
G36*
X200500Y101368D02*
X198159Y100902D01*
X196174Y99576D01*
X194848Y97591D01*
X194382Y95250D01*
X194711Y93600D01*
X194424Y93170D01*
X194191Y92000D01*
X194191Y92000D01*
Y76172D01*
X192924Y75326D01*
X191598Y73341D01*
X191133Y71000D01*
X191598Y68659D01*
X192924Y66674D01*
X194909Y65348D01*
X197250Y64882D01*
X199591Y65348D01*
X201576Y66674D01*
X202902Y68659D01*
X204759Y69282D01*
X205409Y68848D01*
X207750Y68383D01*
X210091Y68848D01*
X212076Y70174D01*
X213402Y72159D01*
X213867Y74500D01*
X213402Y76841D01*
X212076Y78826D01*
X210091Y80152D01*
X207750Y80618D01*
X205409Y80152D01*
X203424Y78826D01*
X202098Y76841D01*
X202009Y76808D01*
X200309Y77862D01*
Y88975D01*
X200500Y89132D01*
X202841Y89598D01*
X204826Y90924D01*
X206152Y92909D01*
X206618Y95250D01*
X206152Y97591D01*
X204826Y99576D01*
X202841Y100902D01*
X200500Y101368D01*
D02*
G37*
G36*
X188500Y25700D02*
X187020Y25505D01*
X184709Y24548D01*
X182725Y23026D01*
X181202Y21041D01*
X180245Y18730D01*
X180050Y17250D01*
X188500D01*
Y25700D01*
D02*
G37*
G36*
X190500D02*
Y17250D01*
X198951D01*
X198756Y18730D01*
X197798Y21041D01*
X196276Y23026D01*
X194291Y24548D01*
X191980Y25505D01*
X190500Y25700D01*
D02*
G37*
G36*
X198951Y15250D02*
X190500D01*
Y6800D01*
X191980Y6995D01*
X194291Y7952D01*
X196276Y9475D01*
X197798Y11459D01*
X198756Y13770D01*
X198951Y15250D01*
D02*
G37*
G36*
X188500D02*
X180050D01*
X180245Y13770D01*
X181202Y11459D01*
X182725Y9475D01*
X184709Y7952D01*
X187020Y6995D01*
X188500Y6800D01*
Y15250D01*
D02*
G37*
G36*
X140498Y30750D02*
X135498D01*
Y26250D01*
X140498D01*
Y30750D01*
D02*
G37*
G36*
X133498Y37250D02*
X128498D01*
Y32750D01*
X133498D01*
Y37250D01*
D02*
G37*
G36*
X140498D02*
X135498D01*
Y32750D01*
X140498D01*
Y37250D01*
D02*
G37*
G36*
X147250Y35750D02*
X143250D01*
Y31750D01*
X147250D01*
Y35750D01*
D02*
G37*
G36*
X153250D02*
X149250D01*
Y31750D01*
X153250D01*
Y35750D01*
D02*
G37*
G36*
X297250Y186250D02*
X288800D01*
X288995Y184770D01*
X289952Y182459D01*
X291474Y180474D01*
X293459Y178952D01*
X295770Y177994D01*
X297250Y177800D01*
Y186250D01*
D02*
G37*
G36*
X307700D02*
X299250D01*
Y177800D01*
X300730Y177994D01*
X303041Y178952D01*
X305025Y180474D01*
X306548Y182459D01*
X307505Y184770D01*
X307700Y186250D01*
D02*
G37*
G36*
X277533Y104868D02*
X275191Y104402D01*
X273207Y103076D01*
X271881Y101091D01*
X270034Y100519D01*
X268283Y100868D01*
X265942Y100402D01*
X263957Y99076D01*
X262631Y97091D01*
X262432Y96093D01*
X246220D01*
X245049Y95860D01*
X244057Y95197D01*
X244057Y95197D01*
X222587Y73727D01*
X221924Y72735D01*
X221691Y71564D01*
X221691Y71564D01*
Y48204D01*
X219113Y45625D01*
X218450Y44633D01*
X218217Y43462D01*
X218217Y43462D01*
Y26605D01*
X216517Y25566D01*
X214500Y25832D01*
X212020Y25505D01*
X209709Y24548D01*
X207725Y23026D01*
X206202Y21041D01*
X205245Y18730D01*
X204918Y16250D01*
X205245Y13770D01*
X206202Y11459D01*
X207725Y9475D01*
X209709Y7952D01*
X212020Y6995D01*
X214500Y6668D01*
X216980Y6995D01*
X219291Y7952D01*
X221276Y9475D01*
X222798Y11459D01*
X223756Y13770D01*
X224082Y16250D01*
X223756Y18730D01*
X223038Y20462D01*
X223438Y20863D01*
X223438Y20863D01*
X224102Y21855D01*
X224334Y23026D01*
Y26293D01*
X226034Y27202D01*
X226659Y26785D01*
X229000Y26319D01*
X231341Y26785D01*
X232491Y27553D01*
X234191Y26645D01*
Y24151D01*
X232725Y23026D01*
X231202Y21041D01*
X230245Y18730D01*
X229918Y16250D01*
X230245Y13770D01*
X231202Y11459D01*
X232725Y9475D01*
X234709Y7952D01*
X237020Y6995D01*
X239500Y6668D01*
X241980Y6995D01*
X244291Y7952D01*
X246276Y9475D01*
X247798Y11459D01*
X248755Y13770D01*
X249082Y16250D01*
X248755Y18730D01*
X247798Y21041D01*
X246276Y23026D01*
X244291Y24548D01*
X241980Y25505D01*
X240309Y25726D01*
Y74047D01*
X249237Y82975D01*
X270714D01*
X270714Y82975D01*
X271884Y83208D01*
X272877Y83871D01*
X278593Y89587D01*
X279256Y90580D01*
X279425Y91428D01*
X279995Y91873D01*
X280716Y91760D01*
X281910Y90962D01*
X281913Y90943D01*
X283239Y88958D01*
X284506Y88111D01*
Y78332D01*
X262337Y56163D01*
X261674Y55171D01*
X261441Y54000D01*
X261441Y54000D01*
Y25266D01*
X259709Y24548D01*
X257725Y23026D01*
X256202Y21041D01*
X255245Y18730D01*
X254918Y16250D01*
X255245Y13770D01*
X256202Y11459D01*
X257725Y9475D01*
X259709Y7952D01*
X262020Y6995D01*
X264500Y6668D01*
X266980Y6995D01*
X269291Y7952D01*
X271276Y9475D01*
X272798Y11459D01*
X273755Y13770D01*
X274082Y16250D01*
X273755Y18730D01*
X273748Y18747D01*
X275122Y19874D01*
X275909Y19348D01*
X278250Y18882D01*
X278983Y19028D01*
X280133Y17879D01*
X279918Y16250D01*
X280245Y13770D01*
X281202Y11459D01*
X282725Y9475D01*
X284709Y7952D01*
X287020Y6995D01*
X289500Y6668D01*
X291980Y6995D01*
X294291Y7952D01*
X296276Y9475D01*
X297798Y11459D01*
X298755Y13770D01*
X299082Y16250D01*
X298755Y18730D01*
X297798Y21041D01*
X296276Y23026D01*
X294291Y24548D01*
X291980Y25505D01*
X289500Y25832D01*
X287020Y25505D01*
X285933Y25055D01*
X283965Y27024D01*
X283902Y27341D01*
X282576Y29326D01*
X280591Y30652D01*
X278250Y31117D01*
X275909Y30652D01*
X273924Y29326D01*
X272598Y27341D01*
X272132Y25000D01*
X272247Y24423D01*
X270705Y23463D01*
X269291Y24548D01*
X267559Y25266D01*
Y52733D01*
X278665Y63840D01*
X280232Y63002D01*
X280132Y62500D01*
X280598Y60159D01*
X281924Y58174D01*
X283909Y56848D01*
X286250Y56382D01*
X288591Y56848D01*
X290576Y58174D01*
X291902Y60159D01*
X292367Y62500D01*
X291902Y64841D01*
X290576Y66826D01*
X288591Y68152D01*
X286250Y68618D01*
X285748Y68518D01*
X284910Y70085D01*
X289728Y74902D01*
X289728Y74902D01*
X290391Y75895D01*
X290624Y77065D01*
X290624Y77065D01*
Y88111D01*
X291891Y88958D01*
X293217Y90943D01*
X293683Y93284D01*
X293217Y95625D01*
X291891Y97610D01*
X289906Y98936D01*
X287565Y99401D01*
X285224Y98936D01*
X283443Y99790D01*
X283185Y101091D01*
X281858Y103076D01*
X279874Y104402D01*
X277533Y104868D01*
D02*
G37*
G36*
X46000Y166750D02*
X41000D01*
X36000D01*
Y162750D01*
Y153750D01*
X36000D01*
X36691Y152050D01*
X36383Y150500D01*
X36848Y148159D01*
X38174Y146174D01*
X40159Y144848D01*
X42500Y144382D01*
X44841Y144848D01*
X46826Y146174D01*
X48152Y148159D01*
X48618Y150500D01*
X48152Y152841D01*
X46826Y154826D01*
X46000Y155377D01*
Y162750D01*
Y166750D01*
D02*
G37*
G36*
X68137Y151028D02*
X64387D01*
X62299Y150753D01*
X60353Y149946D01*
X58682Y148664D01*
X57400Y146993D01*
X56593Y145047D01*
X56483Y144208D01*
X68137D01*
Y151028D01*
D02*
G37*
G36*
X23275D02*
X17031D01*
Y144208D01*
X31180D01*
X31069Y145047D01*
X30263Y146993D01*
X28981Y148664D01*
X27310Y149946D01*
X25364Y150753D01*
X23275Y151028D01*
D02*
G37*
G36*
X40000Y172750D02*
X36000D01*
Y168750D01*
X40000D01*
Y172750D01*
D02*
G37*
G36*
X46000D02*
X42000D01*
Y168750D01*
X46000D01*
Y172750D01*
D02*
G37*
G36*
X68137Y141708D02*
X56483D01*
X56593Y140870D01*
X57400Y138924D01*
X58682Y137253D01*
X60353Y135971D01*
X62299Y135164D01*
X64387Y134889D01*
X68137D01*
Y141708D01*
D02*
G37*
G36*
X66761Y125250D02*
X61261D01*
Y120250D01*
X66761D01*
Y125250D01*
D02*
G37*
G36*
Y132250D02*
X61261D01*
Y127250D01*
X66761D01*
Y132250D01*
D02*
G37*
G36*
X74261D02*
X68761D01*
Y127250D01*
X74261D01*
Y132250D01*
D02*
G37*
%LPD*%
D10*
X41000Y167750D02*
D03*
Y158750D02*
D03*
X56216Y169503D02*
D03*
Y160502D02*
D03*
X77000Y16500D02*
D03*
Y25500D02*
D03*
X129753Y111000D02*
D03*
Y102000D02*
D03*
X135743Y153002D02*
D03*
Y162003D02*
D03*
Y132000D02*
D03*
Y141000D02*
D03*
X73000Y167000D02*
D03*
Y158000D02*
D03*
X148250Y36750D02*
D03*
Y45750D02*
D03*
D11*
X116000Y116000D02*
D03*
Y103000D02*
D03*
X99500Y109500D02*
D03*
X134498Y44750D02*
D03*
Y31750D02*
D03*
X117998Y38250D02*
D03*
D20*
X107500Y164505D02*
D03*
X98500D02*
D03*
X24000Y34500D02*
D03*
X15000D02*
D03*
X177750Y164742D02*
D03*
X168750D02*
D03*
X164000Y189497D02*
D03*
X173000D02*
D03*
X163755Y177494D02*
D03*
X172755D02*
D03*
D26*
X67761Y126250D02*
D03*
Y111250D02*
D03*
X41748Y78975D02*
D03*
Y93975D02*
D03*
D43*
X162706Y80680D02*
X179935Y97909D01*
X135743Y142795D02*
X137001Y141536D01*
X135743Y142795D02*
Y154797D01*
X56250Y65750D02*
X101101D01*
X113000Y68250D02*
Y72000D01*
X108500Y63750D02*
X113000Y68250D01*
X103101Y63750D02*
X108500D01*
X48000Y57500D02*
X56250Y65750D01*
X42750Y57500D02*
X48000D01*
X101101Y65750D02*
X103101Y63750D01*
X86000Y46750D02*
Y52643D01*
X93107Y59750D02*
X128000D01*
X86000Y52643D02*
X93107Y59750D01*
X154675Y82750D02*
X176709Y104784D01*
X151000Y82750D02*
X154675D01*
X55250Y179750D02*
X56216Y178784D01*
Y169503D02*
Y178784D01*
X60752Y160502D02*
X65253Y165003D01*
Y180509D01*
X56216Y160502D02*
X60752D01*
X41000Y158750D02*
X42500Y157250D01*
Y150500D02*
Y157250D01*
X40250Y158000D02*
X41000Y158750D01*
X78745Y158000D02*
X84497Y163753D01*
X73000Y158000D02*
X78745D01*
X84497Y163753D02*
X94495Y173750D01*
X143407D01*
X84250Y164000D02*
X84497Y163753D01*
X143407Y173750D02*
X153758Y163399D01*
X133696Y161750D02*
X135743Y163797D01*
X127149Y161750D02*
X133696D01*
X125149Y159750D02*
X127149Y161750D01*
X125000Y159750D02*
X125149D01*
X123241Y157991D02*
X125000Y159750D01*
X163269Y153888D02*
X189362D01*
X141243Y153007D02*
Y166038D01*
X132002Y167797D02*
X139484D01*
X141243Y166038D01*
X130955Y166750D02*
X132002Y167797D01*
X122250Y166750D02*
X130955D01*
X141243Y153007D02*
X145250Y149000D01*
X239563Y160563D02*
Y174937D01*
X236250Y157250D02*
X239563Y160563D01*
X214830Y157250D02*
X236250D01*
X249000Y164000D02*
Y172358D01*
X237750Y152750D02*
X249000Y164000D01*
X218577Y152750D02*
X237750D01*
X201000Y141250D02*
X207077D01*
X145250Y149000D02*
X184750D01*
X192500Y141250D01*
X153758Y163399D02*
X163269Y153888D01*
X189362D02*
X193463Y149787D01*
X207367D02*
X214830Y157250D01*
X193463Y149787D02*
X207367D01*
X239000Y175500D02*
X239563Y174937D01*
X192500Y141250D02*
X201000D01*
X207077D02*
X218577Y152750D01*
X169655Y134500D02*
X184142D01*
X166719Y120250D02*
X184000D01*
X179845Y113250D02*
X180060Y113035D01*
X137001Y141536D02*
X176810D01*
X171863Y157888D02*
X191019D01*
X168750Y161000D02*
X171863Y157888D01*
X191019D02*
X195120Y153787D01*
X144905Y109750D02*
X169655Y134500D01*
X226525Y161250D02*
X232563Y167287D01*
X270250Y169424D02*
X273250Y172424D01*
X270250Y163250D02*
Y169424D01*
X256250Y178500D02*
X256500Y178750D01*
X248250Y186500D02*
X256250Y178500D01*
X256500Y178750D02*
X256750D01*
X273250Y172424D02*
Y187250D01*
X197250Y92000D02*
X200500Y95250D01*
X107000Y164006D02*
X107500Y164505D01*
X107000Y133250D02*
Y164006D01*
X99241Y109759D02*
Y132502D01*
X50000Y23000D02*
X64500Y8500D01*
X27750Y23000D02*
X50000D01*
X64500Y8500D02*
X85750D01*
X90027Y25500D02*
X90264Y25264D01*
X77000Y25500D02*
X90027D01*
X67250Y16500D02*
X77000D01*
X62814Y20936D02*
X67250Y16500D01*
X117000Y37252D02*
X117998Y38250D01*
X98245Y12000D02*
X99745Y13500D01*
X116000Y116000D02*
X117750Y114250D01*
X121500D01*
X124750Y111000D01*
X129753D01*
X111686Y82000D02*
X124936Y95250D01*
X106347Y82000D02*
X111686D01*
X106049Y81701D02*
X106347Y82000D01*
X105806Y71533D02*
X106783D01*
X113343Y78000D02*
X126593Y91250D01*
X106783Y71533D02*
X113250Y78000D01*
X113343D01*
X113000Y72000D02*
X128250Y87250D01*
X163755Y171745D02*
X164250Y171250D01*
X163755Y171745D02*
Y177494D01*
X168750Y171250D02*
X168750Y171250D01*
X164250Y171250D02*
X168750D01*
X148500Y183250D02*
X148744Y183494D01*
X172250Y177999D02*
X172755Y177494D01*
X172250Y177999D02*
Y182500D01*
X171256Y183494D02*
X172250Y182500D01*
X164000Y183995D02*
Y189497D01*
X163500Y183494D02*
X164000Y183995D01*
X148744Y183494D02*
X163500D01*
X171256D01*
X24000Y34500D02*
X24250Y34250D01*
Y26500D02*
Y34250D01*
Y26500D02*
X27750Y23000D01*
X14750Y34250D02*
X15000Y34500D01*
X7000Y34250D02*
X14750D01*
X99241Y132502D02*
X106252D01*
X99241Y109759D02*
X99500Y109500D01*
X123241Y142002D02*
Y157991D01*
X197250Y71000D02*
Y92000D01*
X176503Y189497D02*
X186000Y180000D01*
X173000Y189497D02*
X176503D01*
X134498Y44750D02*
X147250D01*
X148250Y45750D01*
X168750Y161000D02*
Y164742D01*
Y171250D01*
X148250Y45750D02*
Y54149D01*
X162706Y68605D01*
X128000Y59750D02*
X151000Y82750D01*
X264500Y16250D02*
X266000Y17750D01*
X267814Y93034D02*
X268314Y93534D01*
X246220Y93034D02*
X267814D01*
X264500Y54000D02*
X287565Y77065D01*
X264500Y16250D02*
Y54000D01*
X287565Y77065D02*
Y93284D01*
X237250Y18500D02*
X239500Y16250D01*
X237250Y18500D02*
Y75314D01*
X247970Y86034D01*
X195120Y153787D02*
X205711D01*
X213174Y161250D01*
X106252Y132502D02*
X107000Y133250D01*
X247970Y86034D02*
X270714D01*
X276430Y91750D01*
Y97648D01*
X277533Y98750D01*
X162706Y68605D02*
Y74643D01*
Y80680D01*
X176709Y104784D02*
X184310D01*
X168312Y127500D02*
X176750D01*
X128250Y87250D02*
X139375D01*
X124936Y95250D02*
X136062D01*
X126593Y91250D02*
X137719D01*
X165375Y113250D02*
X179845D01*
X139375Y87250D02*
X165375Y113250D01*
X137719Y91250D02*
X166719Y120250D01*
X136062Y95250D02*
X168312Y127500D01*
X129753Y111000D02*
X131003Y109750D01*
X144905D01*
X288250Y16250D02*
X289500D01*
X278250Y25000D02*
X279500D01*
X224750Y71564D02*
X246220Y93034D01*
X224750Y46937D02*
Y71564D01*
X221276Y43462D02*
X224750Y46937D01*
X221276Y23026D02*
Y43462D01*
X214500Y16250D02*
X221276Y23026D01*
X213174Y161250D02*
X226525D01*
X248250Y186500D02*
Y186750D01*
X44007Y122227D02*
X46007Y120227D01*
X36000Y122500D02*
X36273Y122227D01*
X90264Y22764D02*
Y25264D01*
D46*
X99500Y49500D02*
X109500D01*
X98245Y48245D02*
X99500Y49500D01*
X98245Y44000D02*
Y48245D01*
X36273Y121727D02*
X44007D01*
X46007Y129727D02*
X48507D01*
X52007Y126227D01*
X52750D01*
X54507Y124470D01*
Y112007D02*
Y124470D01*
X53227Y110727D02*
X54507Y112007D01*
D49*
X375250Y185250D02*
D03*
X15250Y15250D02*
D03*
X15250Y185250D02*
D03*
X148250Y13500D02*
D03*
X124500D02*
D03*
X115718Y187000D02*
D03*
X91968D02*
D03*
D50*
X154500Y174000D02*
D03*
Y192000D02*
D03*
D51*
X15781Y56568D02*
D03*
Y142958D02*
D03*
D52*
X69387D02*
D03*
D53*
X69390Y56568D02*
D03*
D54*
X286250Y62500D02*
D03*
X55250Y179750D02*
D03*
X65253Y180509D02*
D03*
X42500Y150500D02*
D03*
X84497Y163753D02*
D03*
X122250Y166750D02*
D03*
X180060Y141536D02*
D03*
Y127500D02*
D03*
Y113035D02*
D03*
X188642Y134500D02*
D03*
X188500Y120500D02*
D03*
X188810Y104784D02*
D03*
X249000Y172358D02*
D03*
X221476Y133750D02*
D03*
X233476Y145750D02*
D03*
X239000Y175500D02*
D03*
X232563Y167287D02*
D03*
X263250Y170608D02*
D03*
X256750Y178750D02*
D03*
X200500Y95250D02*
D03*
X85750Y8500D02*
D03*
X221476Y109750D02*
D03*
Y145750D02*
D03*
X245476Y109750D02*
D03*
X257476D02*
D03*
Y145750D02*
D03*
X245476D02*
D03*
X233476Y109750D02*
D03*
X245476Y133750D02*
D03*
X257476D02*
D03*
X233476D02*
D03*
X221476Y121750D02*
D03*
X245476D02*
D03*
X257476D02*
D03*
X233476D02*
D03*
X106049Y81701D02*
D03*
X105806Y71533D02*
D03*
X326750Y58750D02*
D03*
Y74749D02*
D03*
X311250Y101000D02*
D03*
X100000Y142250D02*
D03*
X129750Y78000D02*
D03*
X146250Y121250D02*
D03*
X115250Y132500D02*
D03*
X83500Y76250D02*
D03*
X85250Y95250D02*
D03*
Y104500D02*
D03*
X126750Y124500D02*
D03*
X186000Y191750D02*
D03*
X326750Y106748D02*
D03*
Y90749D02*
D03*
Y42751D02*
D03*
Y26748D02*
D03*
Y10749D02*
D03*
X327250Y163250D02*
D03*
X287000Y192500D02*
D03*
X168000Y7500D02*
D03*
X198827Y29058D02*
D03*
X86000Y46750D02*
D03*
X42750Y57500D02*
D03*
X148500Y183250D02*
D03*
X7000Y34250D02*
D03*
X62814Y20936D02*
D03*
X90264Y25264D02*
D03*
X197250Y71000D02*
D03*
X229000Y32437D02*
D03*
X186560Y179038D02*
D03*
X75805Y192289D02*
D03*
X32250Y104250D02*
D03*
X109500Y49500D02*
D03*
X34500Y8750D02*
D03*
X278250Y25000D02*
D03*
X207750Y74500D02*
D03*
X287565Y93284D02*
D03*
X143500Y63750D02*
D03*
X268283Y94750D02*
D03*
X202811Y160787D02*
D03*
X277533Y98750D02*
D03*
X201000Y7500D02*
D03*
X180060Y97784D02*
D03*
X166809Y104784D02*
D03*
X217750Y52500D02*
D03*
X49250Y69000D02*
D03*
X253250Y30250D02*
D03*
X160750Y24750D02*
D03*
X179500Y79500D02*
D03*
X107500Y27000D02*
D03*
X254750Y47750D02*
D03*
X270250Y163250D02*
D03*
X32500Y129750D02*
D03*
X88004Y134507D02*
D03*
X165258Y49502D02*
D03*
D56*
X22745Y93225D02*
D03*
Y71725D02*
D03*
D57*
X46007Y129727D02*
D03*
Y120227D02*
D03*
Y110727D02*
D03*
X20007D02*
D03*
Y129727D02*
D03*
D58*
X98245Y12000D02*
D03*
Y44000D02*
D03*
D59*
X123241Y142002D02*
D03*
X99241Y151502D02*
D03*
Y132502D02*
D03*
D60*
X248250Y187250D02*
D03*
X273250D02*
D03*
X298250D02*
D03*
X189500Y16250D02*
D03*
X214500D02*
D03*
X289500D02*
D03*
X264500D02*
D03*
X239500D02*
D03*
D61*
X151000Y82750D02*
D03*
X87750Y65000D02*
D03*
X162706Y74643D02*
D03*
X153758Y163399D02*
D03*
X201000Y141250D02*
D03*
D62*
X98500Y150762D02*
Y164505D01*
X55750Y113250D02*
X74500D01*
X98491Y150752D02*
X98500Y150762D01*
X91502Y150752D02*
X98491D01*
X88250Y147500D02*
X91502Y150752D01*
X88250Y134752D02*
Y147500D01*
X88004Y134507D02*
X88250Y134752D01*
X74500Y113250D02*
X88004Y126754D01*
Y134507D01*
X124500Y13500D02*
Y25000D01*
X117998Y31502D02*
X124500Y25000D01*
X117998Y31502D02*
Y38250D01*
X99745Y13500D02*
X124500D01*
X116000Y103000D02*
X123250D01*
X124000Y102250D01*
X129503D01*
X129753Y102000D01*
X46007Y110727D02*
X53227D01*
X279500Y25000D02*
X288250Y16250D01*
X54507Y112007D02*
X55750Y113250D01*
D63*
X11015Y129727D02*
X20007D01*
X11050Y71725D02*
X22745D01*
X7775Y75000D02*
Y126488D01*
X11015Y129727D01*
X7775Y75000D02*
X11050Y71725D01*
M02*
