G04 Layer_Color=32896*
%FSLAX44Y44*%
%MOMM*%
G71*
G01*
G75*
%ADD43C,0.2000*%
%ADD44C,0.2500*%
%ADD55C,0.2540*%
D43*
X112000Y160255D02*
Y169005D01*
Y160005D02*
Y160255D01*
X94000Y160005D02*
X112000D01*
X94000D02*
Y169005D01*
X112000D01*
X36500Y172250D02*
X45250D01*
X45500D01*
Y154250D02*
Y172250D01*
X36500Y154250D02*
X45500D01*
X36500D02*
Y172250D01*
X51716Y174002D02*
X60466D01*
X60716D01*
Y156003D02*
Y174002D01*
X51716Y156003D02*
X60716D01*
X51716D02*
Y174002D01*
X28500Y30250D02*
Y39000D01*
Y30000D02*
Y30250D01*
X10500Y30000D02*
X28500D01*
X10500D02*
Y39000D01*
X28500D01*
X183000Y159742D02*
Y169992D01*
Y159492D02*
Y159742D01*
X177250Y159492D02*
X183000D01*
X163500D02*
X177250D01*
X163500D02*
Y169992D01*
X183000D01*
X61010Y104750D02*
Y132750D01*
X74510Y104750D02*
Y132750D01*
X61010D02*
X74510D01*
X61010Y104750D02*
X74510D01*
X48497Y72475D02*
Y100475D01*
X34997Y72475D02*
Y100475D01*
Y72475D02*
X48497D01*
X34997Y100475D02*
X48497D01*
X31995Y64449D02*
Y100475D01*
X13495Y64449D02*
X31995D01*
X13495D02*
Y80949D01*
Y100475D02*
X31995D01*
X13495Y80949D02*
Y100475D01*
X159500Y184997D02*
Y193747D01*
Y193997D01*
X177500D01*
Y184997D02*
Y193997D01*
X159500Y184997D02*
X177500D01*
X159255Y172994D02*
Y181745D01*
Y181994D01*
X177255D01*
Y172994D02*
Y181994D01*
X159255Y172994D02*
X177255D01*
X72750Y12000D02*
X81500D01*
X72500D02*
X72750D01*
X72500D02*
Y30000D01*
X81500D01*
Y12000D02*
Y30000D01*
X125253Y115500D02*
X134003D01*
X134253D01*
Y97500D02*
Y115500D01*
X125253Y97500D02*
X134253D01*
X125253D02*
Y115500D01*
X131493Y148503D02*
X140243D01*
X131243D02*
X131493D01*
X131243D02*
Y166502D01*
X140243D01*
Y148503D02*
Y166502D01*
X131493Y127500D02*
X140243D01*
X131243D02*
X131493D01*
X131243D02*
Y145500D01*
X140243D01*
Y127500D02*
Y145500D01*
X68500Y171500D02*
X77250D01*
X77500D01*
Y153500D02*
Y171500D01*
X68500Y153500D02*
X77500D01*
X68500D02*
Y171500D01*
X144000Y32250D02*
X152750D01*
X143750D02*
X144000D01*
X143750D02*
Y50250D01*
X152750D01*
Y32250D02*
Y50250D01*
X26007Y103728D02*
X40007D01*
X25507Y116727D02*
Y123728D01*
X26007Y136727D02*
X40007D01*
X104746Y14500D02*
X107245D01*
Y41500D01*
X104746D02*
X107245D01*
X89245Y14500D02*
X91745D01*
X89245D02*
Y41500D01*
X91745D01*
X107245Y32250D02*
Y32750D01*
X89245Y32250D02*
X107245D01*
X118241Y149252D02*
Y157002D01*
X108241D02*
X118241D01*
Y127002D02*
Y134752D01*
X108241Y127002D02*
X118241D01*
X93250Y121750D02*
X109750D01*
X93250Y97250D02*
Y121750D01*
Y97250D02*
X122250D01*
Y121750D01*
X109750D02*
X122250D01*
X111748Y50500D02*
X128248D01*
X111748Y26000D02*
Y50500D01*
Y26000D02*
X140748D01*
Y50500D01*
X128248D02*
X140748D01*
X207750Y29000D02*
Y43995D01*
X200252D01*
X197753Y41496D01*
Y36498D01*
X200252Y33998D01*
X207750D01*
X202751D02*
X197753Y29000D01*
X249504Y41996D02*
X252003Y44496D01*
X257001D01*
X259500Y41996D01*
Y32000D01*
X257001Y29500D01*
X252003D01*
X249504Y32000D01*
X244505Y44496D02*
Y29500D01*
X234508D01*
X229510Y44496D02*
Y29500D01*
Y34499D01*
X219513Y44496D01*
X227011Y36998D01*
X219513Y29500D01*
X292500Y43995D02*
X287502D01*
X290001D01*
Y29000D01*
X292500D01*
X287502D01*
X272507Y43995D02*
X277505D01*
X280004Y41496D01*
Y31499D01*
X277505Y29000D01*
X272507D01*
X270007Y31499D01*
Y41496D01*
X272507Y43995D01*
X342000Y19995D02*
Y9998D01*
X337002Y5000D01*
X332003Y9998D01*
Y19995D01*
X327005D02*
Y5000D01*
X319507D01*
X317008Y7499D01*
Y17496D01*
X319507Y19995D01*
X327005D01*
X312010D02*
Y5000D01*
X304512D01*
X302013Y7499D01*
Y17496D01*
X304512Y19995D01*
X312010D01*
X237250Y191745D02*
Y179249D01*
X234751Y176750D01*
X229753D01*
X227253Y179249D01*
Y191745D01*
X222255Y174251D02*
X212258D01*
X207260Y191745D02*
X197263D01*
X202261D01*
Y176750D01*
X192265Y191745D02*
X182268Y176750D01*
Y191745D02*
X192265Y176750D01*
X298500Y173745D02*
Y161249D01*
X296001Y158750D01*
X291002D01*
X288503Y161249D01*
Y173745D01*
X283505Y156251D02*
X273508D01*
X268510Y158750D02*
Y173745D01*
X261012D01*
X258513Y171246D01*
Y166248D01*
X261012Y163748D01*
X268510D01*
X263511D02*
X258513Y158750D01*
X253514Y173745D02*
X243518Y158750D01*
Y173745D02*
X253514Y158750D01*
X240250Y73745D02*
Y63748D01*
X235252Y58750D01*
X230253Y63748D01*
Y73745D01*
X225255D02*
X220257D01*
X222756D01*
Y58750D01*
X225255D01*
X220257D01*
X212759Y73745D02*
Y58750D01*
X205261D01*
X202762Y61249D01*
Y63748D01*
X205261Y66248D01*
X212759D01*
X205261D01*
X202762Y68747D01*
Y71246D01*
X205261Y73745D01*
X212759D01*
X197764Y58750D02*
Y73745D01*
X190266D01*
X187767Y71246D01*
Y66248D01*
X190266Y63748D01*
X197764D01*
X192765D02*
X187767Y58750D01*
X175271Y73745D02*
X180269D01*
X182769Y71246D01*
Y61249D01*
X180269Y58750D01*
X175271D01*
X172772Y61249D01*
Y71246D01*
X175271Y73745D01*
X183500Y92250D02*
Y107245D01*
X178502Y102247D01*
X173503Y107245D01*
Y92250D01*
X168505Y89751D02*
X158508D01*
X153510Y107245D02*
Y92250D01*
X146012D01*
X143513Y94749D01*
Y97248D01*
X146012Y99748D01*
X153510D01*
X146012D01*
X143513Y102247D01*
Y104746D01*
X146012Y107245D01*
X153510D01*
X172500Y140000D02*
Y154995D01*
X165002D01*
X162503Y152496D01*
Y147498D01*
X165002Y144998D01*
X172500D01*
X157505Y137501D02*
X147508D01*
X132513Y152496D02*
X135012Y154995D01*
X140010D01*
X142510Y152496D01*
Y142499D01*
X140010Y140000D01*
X135012D01*
X132513Y142499D01*
Y147498D01*
X137511D01*
X249750Y134500D02*
Y149495D01*
X242252D01*
X239753Y146996D01*
Y141998D01*
X242252Y139498D01*
X249750D01*
X234755Y132001D02*
X224758D01*
X219760Y134500D02*
Y149495D01*
X212262D01*
X209763Y146996D01*
Y141998D01*
X212262Y139498D01*
X219760D01*
X214761D02*
X209763Y134500D01*
X108500Y77250D02*
Y92245D01*
X103502Y87247D01*
X98503Y92245D01*
Y77250D01*
X93505Y74751D02*
X83508D01*
X78510Y77250D02*
Y92245D01*
X71012D01*
X68513Y89746D01*
Y84748D01*
X71012Y82248D01*
X78510D01*
X73511D02*
X68513Y77250D01*
D44*
X94741Y126252D02*
G03*
X94741Y126252I-1250J0D01*
G01*
D55*
X49257Y136727D02*
G03*
X49257Y136727I-1250J0D01*
G01*
M02*
